<svg xmlns="http://www.w3.org/2000/svg" width="400" height="233.004" viewBox="0 0 400 NaN" fill-rule="evenodd" xmlns:v="https://vecta.io/nano"><path d="M78.555 110.956c-.311.201-.311.226 0 .226.192 0 .507-.102.699-.226.311-.201.311-.226 0-.226-.192 0-.507.101-.699.226m-2.024 1.107c-.504.481-.649.651-.321.377s.911-.662 1.296-.865c.411-.216.543-.371.321-.377-.208-.005-.791.384-1.296.865m1.907.806c-2.205 1.265-.646 4.63 1.642 3.544 1.06-.503 1.454-1.633.925-2.656-.536-1.035-1.643-1.418-2.567-.888m-3.303.709c-.406.556-.854 1.573-.741 1.686.062.062.329-.358.593-.932.489-1.063.531-1.278.148-.754m4.469.988c0 .492-.127.72-.433.779-.621.12-.933-.296-.754-1.007.231-.922 1.187-.738 1.187.228m-4.778 5.042c-.001.393 2.001 2.537 2.369 2.537.116 0-.178-.341-.652-.758s-1.055-1.072-1.29-1.457c-.261-.428-.426-.553-.427-.322m63.689 44.896l.063 5.076 2.564.068c3.368.089 3.662.011 3.569-.95l-.072-.749-2.273-.067-2.273-.067v-1.39-1.39h1.982 1.981v-.816-.816h-1.981-1.982v-1.165-1.166h2.346 2.346l-.073-.757-.073-.758-3.093-.065-3.094-.065.063 5.077m26.054-4.714a1.1 1.1 0 0 1-.742.35c-.248 0-.391.097-.318.216s-.079.284-.339.367-.418.239-.351.347-.036.356-.229.55-.352.548-.352.788-.117.553-.26.696c-.225.225-.298 1.099-.226 2.702.011.232.124.357.253.278.136-.084.233.153.233.569 0 .392.088.713.195.713s.316.262.462.583.375.582.508.582.648.269 1.144.596c1.036.686 4.18.808 4.802.186.173-.174.461-.315.64-.315.458 0 1.421-1.079 1.234-1.382-.085-.137.009-.25.208-.25.233 0 .364-.21.364-.583 0-.32.1-.583.222-.583s.262-.655.311-1.456.101-.199.115 1.34l.038 3.063c.017.34 1.081.613 1.665.427.401-.127.446-.382.446-2.547v-2.405l.709-.104c1.297-.191 1.622.372 1.622 2.813 0 2.087.01 2.127.6 2.275.951.238 1.051-.095.981-3.287l-.066-2.991-.932-.535c-1.25-.717-3.615-.771-4.465-.102-.692.544-1.246.394-1.246-.337 0-.293-.164-.595-.365-.672s-.306-.235-.234-.35-.194-.457-.588-.759l-1.031-.841c-.479-.446-4.63-.397-5.008.058m17.948.466v.816h1.749 1.748v4.321 4.32l.524-.072c1.09-.15 1.108-.221 1.108-4.503v-4.066h1.393 1.393l.064 4.235.063 4.235.647.086c1.311.175 1.459-.117 1.37-2.712-.086-2.5-.108-2.454 1.11-2.351.977.082 1.163.509 1.235 2.834l.067 2.181h.7.699l.065-2.937.065-2.938-.75-.734c-.654-.639-.912-.733-2.009-.733h-1.259l.052-.991c.105-1.98.588-1.806-5.022-1.806h-5.012v.815m25.408 4.085v4.9l.581.264c1.283.585 1.622.073 1.546-2.333l-.067-2.137h2.117 2.117v1.618c0 .89.105 1.683.233 1.762s.233.33.233.558c0 .501.226.545 2.981.58 2.643.034 2.605.076 2.61-2.97.003-1.998.052-2.279.372-2.156.203.078.465.142.583.142s.214.808.214 1.796c0 2.599 1.838 4.043 4.06 3.19.74-.283.479-1.723-.311-1.723-1.292 0-1.418-.157-1.418-1.773v-1.49l.758-.028 1.049.01c.199.026.291-.332.291-1.138 0-.646-.079-1.163-.175-1.148-1.242.197-1.923-.054-1.923-.707 0-1.204-.197-1.418-1.307-1.418h-1.024v1.049c0 1.155.113 1.093-2.098 1.142l-1.049.023-.065 2.739-.066 2.739h-.847c-.466 0-.783-.065-.703-.144s-.009-.298-.197-.485-.285-.43-.218-.539.016-.264-.114-.345-.237-.968-.237-1.972c0-1.914-.11-2.109-1.185-2.109-.332 0-.447.164-.446.641v.641l-2.098-.075-2.099-.075v-1.149-1.149h2.331 2.331v-.816-.815h-3.38-3.38v4.9m54.089-.328c-.026 4.597-.026 4.597-.612 5.141-1.019.943-2.572.595-2.853-.639-.042-.183-.172-.368-.289-.41s-.057-.234.134-.425c.546-.546.461-1.946-.119-1.946-.256 0-.466-.105-.466-.233s-.315-.233-.699-.233c-.644 0-.7.065-.7.816 0 .449-.105.816-.233.816s-.233.577-.233 1.282.105 1.282.233 1.282.233.262.233.583c0 .362.132.582.35.582.192 0 .35.113.35.25 0 1.182 4.524 1.38 5.785.254.408-.364.741-.731.741-.816 0-.35.898-1.019 1.154-.86.153.094.821.144 1.485.111s1.024-.009.8.052c-.311.085-.408.358-.408 1.143v1.032h1.049 1.049v-1.049c0-.971-.045-1.049-.6-1.049-.533 0-.56-.039-.25-.35.426-.426.778-.448.908-.058.12.359 4.528.295 4.97-.072.199-.165.315-.156.377.029.139.417 5.063.396 5.321-.022.168-.272.297-.269.832.018.764.408 3.441.366 4.272-.067.45-.235.583-.235.661-.003.127.381 2.431.39 2.809.012.218-.217.342-.217.56 0 .337.337 2.75.378 2.75.047 0-.338.978-.273 1.465.097.441.334 1.975.257 2.37-.119.296-.283 1.143-.269 1.436.025.384.384 2.148.443 2.447.082.323-.388 1.182-.416 1.548-.05.27.27 4.093.325 4.513.065.114-.07.207-2.324.207-5.009v-4.881h-1.049-1.049v3.962 3.963h-.832c-1.021 0-1.499-.44-1.499-1.382 0-.394-.093-.716-.207-.716s-.274-.262-.355-.583-.304-.582-.498-.582-.413-.158-.487-.35c-.189-.494-2.607-.495-2.797-.001-.073.191-.227.29-.342.219s-.209-.013-.209.129-.262.501-.582.798c-.383.355-.583.791-.583 1.271 0 .494-.113.731-.35.731-.192 0-.35.105-.35.233 0 .345-.916.282-1.287-.089-.194-.194-.349-.956-.391-1.923l-.07-1.601h-1.045-1.045l-.084 1.865c-.098 2.155-.077 2.107-.717 1.708-.396-.248-.489-.539-.489-1.539 0-2.214-1.936-2.384-2.052-.18-.109 2.092-1.211 2.543-1.211.495 0-1.713-2.166-1.865-2.288-.161-.04.562-.216 1.165-.391 1.34-.374.373-1.983.431-1.983.071 0-.136-.105-.182-.233-.103-.148.092-.233-.527-.233-1.691v-1.835l-1.018-.052c-1.139-.059-1.313.259-1.313 2.395 0 1.195-.315 1.538-1.387 1.515-.455-.011-.697-.072-.536-.136.345-.14.399-1.944.058-1.944-.128 0-.233-.194-.233-.43 0-1.025-.756-1.435-2.65-1.435-1.456 0-1.779.066-1.779.364 0 .2-.094.305-.208.235-.405-.251-.958 1.013-.958 2.19 0 1.064-.049 1.173-.524 1.167-1.059-.015-1.34-.496-1.34-2.291v-1.665h-1.049-1.049v1.982 1.981h-.833c-1.39 0-1.479-.242-1.55-4.231l-.065-3.578-1.089-.07-1.089-.071-.027 4.597m44.118.411l.045 4.901.907.088c1.28.125 1.3.046 1.304-5.264l.004-4.731-1.153.052-1.153.053.046 4.901m19.742-.963v3.933l-.874-.072-.874-.073-.068-1.923-.068-1.923h-1.73c-2.512 0-3.146.633-3.146 3.141 0 2.384-.606 3.153-2.486 3.153-1.75 0-2.175-.467-2.178-2.389-.002-1.712-.773-2.465-1.682-1.642-.436.394-.624 5.121-.194 4.855.09-.056.332.077.538.295.872.921 1.082.979 3.545.979 1.483 0 2.457-.093 2.457-.233 0-.128.079-.221.175-.206.481.076.758-.062.758-.377 0-.192.145-.35.323-.35.368 0 .578-.817.802-3.128.199-2.05.739-2.418.739-.504 0 .716.105 1.301.234 1.301s.233.158.233.35.148.35.33.35.371.123.422.275c.125.376 3.216.341 4.156-.048.515-.213.775-.227.885-.049.203.329.719.368 4.288.324l2.972-.036v-1.049-1.049h-1.065c-1.895 0-2.577-1.544-.741-1.677l.99-.071.071-1.108.071-1.107h-1.644c-.904 0-1.644.094-1.644.209s-.261.456-.579.757c-.472.448-.58.776-.583 1.773l-.004 1.224h-.816c-.449 0-.816-.105-.816-.233s-.157-.233-.349-.233c-.297 0-.35-.571-.35-3.741v-3.74l-1.049.054-1.049.055v3.933m-54.1-2.797c-.567 1.547-.065 2.243 1.61 2.233 2.137-.012 2.572-.43 1.999-1.922-.12-.313-3.502-.604-3.609-.311m5.615 1.089v1.126l1.749-.005c2.018-.007 2.343-.227 2.116-1.435l-.151-.804-1.857-.004-1.857-.005v1.127m-109.409-.332c.074.191.214.298.313.238.266-.165 1.08.619 1.271 1.223.092.29.264.468.383.394s.216.428.216 1.17c0 .941-.097 1.34-.348 1.437-.192.073-.299.214-.238.312.191.309-.728 1.171-1.248 1.171-.273 0-.497.105-.497.233s-.361.233-.802.233-.867-.105-.946-.233-.348-.233-.597-.233-.452-.105-.452-.233-.151-.233-.336-.233c-.214 0-.303-.175-.245-.478.053-.272-.053-.534-.246-.608-.468-.179-.461-2.252.009-2.642.19-.158.301-.362.245-.453-.138-.222.73-.947 1.133-.947.178 0 .383-.158.457-.35.181-.473 1.747-.474 1.928-.001m174.491.63c-.425.425-.361 1.818.084 1.818.199 0 .298.106.218.235-.342.553.629.483 1.198-.086.911-.912.637-2.246-.462-2.246-.417 0-.884.125-1.038.279m-197.094.342c-.086.086-.152 1.475-.148 3.089.01 3.596.192 3.94 2.199 4.147.709.073 1.29.223 1.29.334 0 .291-1.726.246-2.024-.053-.609-.608-1.353-.142-1.428.894l-.071.991h2.493c3.29 0 3.111.297 3.12-5.187l.008-4.37h-.536c-.952 0-1.096.403-1.096 3.077v2.517l-.757-.007c-1.412-.014-1.574-.335-1.574-3.107v-2.48h-.66c-.364 0-.731.07-.816.155m8.153.194c-.193.193-.422.35-.511.35s-.461.341-.828.758c-.679.77-1.053 4.137-.459 4.137.119 0 .25.235.291.522.044.303.271.559.541.609.257.048.541.216.632.373.278.481 3.164.459 4.2-.033.851-.405 1.228-1.451.466-1.296-.158.032-.286-.099-.286-.291 0-.401-1.279-.499-1.515-.117-.207.334-1.559.274-2.04-.091-.872-.662-.459-.841 1.935-.841h2.342l-.07-1.341c-.048-.919-.161-1.322-.361-1.282-.171.034-.291-.182-.291-.524 0-.459-.118-.583-.558-.583-.307 0-.618-.157-.692-.35-.094-.245-.478-.349-1.29-.349-.717 0-1.289.133-1.506.349m45.31.112c-.292.254-.623.405-.735.336s-.203.033-.203.226a.7.7 0 0 1-.316.539c-.477.282-1.057 2.867-.643 2.867.143 0 .263.341.267.757.008.779.444 1.574.864 1.574.131 0 .368.157.527.349 1.025 1.235 5.157.026 4.798-1.403-.171-.685-.053-.675-2.583-.217-.533.097-.861-.014-1.377-.467l-.677-.593h2.6 2.601v-1.033c0-.606-.144-1.176-.35-1.382-.192-.192-.35-.444-.35-.56s-.258-.348-.574-.518-.527-.384-.469-.479c.369-.598-2.69-.594-3.38.004m27.854-.234c-.238.384-.093 6.533.153 6.533.124 0 .367.141.54.313.342.343 3.14.514 4.17.256l.611-.154v-3.455c0-3.164-.037-3.467-.434-3.593-1.059-.337-1.198-.012-1.198 2.811v2.656h-.832c-1.323 0-1.499-.35-1.499-2.986 0-2.21-.025-2.327-.524-2.461-.715-.192-.825-.183-.987.08m7.889.122c-.074.193-.385.35-.692.35h-.558v3.139c0 2.939.031 3.155.485 3.398.984.526 1.147.18 1.147-2.428v-2.432l1.143-.081c1.084-.077 1.129-.057.879.385-.371.659-.369 2.238.004 2.381.168.064.305.319.305.565s.157.509.348.583.291.227.22.342.026.209.215.209.387.131.441.291c.159.48 3.95.394 4.445-.1.815-.814.515-1.823-.541-1.823-.513 0-.932.105-.932.233 0 .452-1.29.226-1.95-.342l-.668-.574 2.533-.066 2.532-.067-.003-1.165c-.002-.801-.093-1.148-.291-1.108-.159.032-.288-.106-.288-.308 0-.406-.541-1.032-.891-1.032-.124 0-.285-.157-.359-.35-.198-.515-2.06-.45-3.101.108-.469.251-.957.392-1.084.313s-.164-.033-.081.102-.005.305-.197.378c-.248.095-.348-.024-.348-.417 0-.853-2.406-1.283-2.713-.484m114.368 2.798v1.981h-.816c-.449 0-.816-.105-.816-.233s-.157-.233-.349-.233c-.244 0-.35-.246-.35-.81 0-.671-.125-.874-.725-1.185-.399-.206-.655-.261-.569-.122.096.154-.064.252-.412.252-.793 0-1.333.662-.789.967.434.242.598 2.763.18 2.763-.12 0-.284.209-.366.466-.119.376-.352.466-1.213.466-1.394 0-1.681-.394-1.7-2.331-.022-2.274-1.938-3.097-2.251-.966a1.21 1.21 0 0 1-.297.577c-.4.4-.309 1.948.125 2.114.267.103.332.311.227.73-.103.41-.04.626.209.722.195.075.355.282.355.461s.157.325.35.325.349.105.349.233c0 .14.938.233 2.348.233 2.323 0 3.014-.21 3.014-.916a.25.25 0 0 1 .249-.25c.364 0 .916-.61.916-1.012 0-.285.119-.301.674-.091.511.192.66.386.615.796-.118 1.078.562 1.473 2.54 1.473h1.792l-.071-.991-.072-.99-1.748-.133c-.962-.073-1.406-.152-.988-.175s.972-.173 1.231-.334c.384-.237.508-.231.675.038.211.339 6.486.459 7.011.135.126-.078.229-.555.229-1.06v-.919h-1.065c-2.032 0-2.655-1.56-.686-1.715 2.099-.166 1.778-2.145-.36-2.222-1.516-.055-2.398.122-2.201.44.068.11-.088.267-.346.349-.331.105-.47.352-.47.833 0 .376-.105.683-.233.683-.327 0-.292 1.014.046 1.352.218.218.111.28-.482.28-1.06 0-1.428-.461-1.432-1.79-.006-1.948-.141-2.173-1.306-2.173h-1.022v1.982m-192.89-.583c.088.144-.313.233-1.049.233s-1.138-.089-1.049-.233c.079-.128.551-.233 1.049-.233s.969.105 1.049.233m45.454 0c.088.142-.269.233-.918.233-.585 0-1.063-.105-1.063-.233s.413-.233.918-.233.984.105 1.063.233m39.86 0c.088.142-.269.233-.918.233-.585 0-1.063-.105-1.063-.233s.413-.233.919-.233.983.105 1.062.233m32.686 1.538c-.042.315-.15.569-.239.566l-.629-.006c-.699 0-.647-1.103.059-1.22.739-.122.896.007.809.66m24.366-.281c.5.379.532.841.058.841-.192 0-.35.105-.35.233s-.262.233-.583.233c-.652 0-.809-.694-.291-1.283.364-.413.645-.419 1.166-.024" fill="#54b3ea"/><path d="M182.051 74.592c0 7.925.081 12.121.233 12.121.129 0 .233.322.233.716 0 .714.443 1.382.916 1.382a.25.25 0 0 1 .25.25c0 .378.616.916 1.049.916.211 0 .54.157.733.349.283.284 1.11.35 4.395.35s4.112-.066 4.396-.35c.196-.196.766-.349 1.298-.349.522 0 .949-.105.949-.233s.42-.234.933-.234c.673 0 .932-.097.932-.349 0-.215.218-.35.564-.35.309 0 .624-.131.699-.291.109-.233.163-.233.272 0 .075.16.389.291.699.291.346 0 .564.135.564.35 0 .244.246.349.815.349.449 0 .816.105.816.234s.513.233 1.141.233c.799 0 1.181.104 1.275.349.115.3 1.114.35 7.017.35h6.884V76.573 62.471H216.9h-2.215v11.771 11.772h-3.962c-2.487 0-3.963-.087-3.963-.233 0-.128-.525-.233-1.166-.233-.88 0-1.165-.086-1.165-.35a.35.35 0 0 1 .35-.35c.194 0 .349-.207.349-.466s.105-.466.233-.466.233-.157.233-.35a.35.35 0 0 1 .35-.349c.218 0 .35-.22.35-.583 0-.32.105-.583.233-.583s.233-.262.233-.582.105-.583.233-.583.233-.356.233-.791c0-.488.134-.842.35-.925.247-.095.349-.481.349-1.315s-.102-1.219-.349-1.314c-.193-.074-.35-.342-.35-.597 0-.267-.197-.515-.466-.585-.257-.067-.466-.215-.466-.328s-.146-.206-.325-.206-.385-.157-.459-.349c-.088-.23-.452-.35-1.06-.35-.509 0-.991-.105-1.07-.233-.183-.297-4.48-.309-4.584-.013-.043.122-.589.247-1.214.278s-1.272.195-1.44.363-.627.304-1.02.304-.716.105-.716.233-.263.233-.583.233-.583.113-.583.25c0 .323-.593.916-.916.916-.137 0-.249.262-.249.583s-.105.582-.234.582-.233.622-.233 1.399.104 1.399.233 1.399.234.195.234.433.262.631.582.871.583.559.583.707.164.333.365.41.298.246.218.376.018.299.218.376.365.241.365.365c0 .302.604.89.915.89.138 0 .25.158.25.35 0 .253-.259.35-.932.35-.513 0-.933.105-.933.233 0 .143-1.165.233-3.03.233s-3.03-.09-3.03-.233c0-.128-.158-.233-.35-.233-.218 0-.35-.22-.35-.583 0-.32-.105-.583-.233-.583-.152 0-.233-3.807-.233-10.955V62.471h-2.214-2.215v12.121m42.888-11.888c-.002.128-.003 6.317-.003 13.753l.003 13.878c.002.301.346.348 2.159.291l2.156-.067.06-14.044.06-14.044h-2.216c-1.32 0-2.217.094-2.219.233m86.716 10.972c0 11.593-.022 11.872-.916 11.872-.137 0-.249.105-.249.233 0 .14-.967.233-2.434.233-1.371 0-2.497-.102-2.578-.233s-.505-.233-.946-.233-.802-.098-.802-.217-.236-.251-.525-.291c-.523-.075-.524-.086-.587-5.145l-.063-5.07h-2.21-2.21v5.361c0 5.206-.013 5.362-.466 5.362-.256 0-.466.105-.466.233 0 .14-.933.233-2.331.233s-2.331-.093-2.331-.233c0-.128-.217-.233-.483-.233-.679 0-1.128-.528-1.195-1.404-.032-.412-.191-.8-.355-.863-.195-.075-.298-.588-.298-1.488 0-.76-.104-1.373-.233-1.373s-.233-.525-.233-1.166c0-.808-.09-1.148-.292-1.107-.173.034-.32-.24-.362-.675-.089-.909-1.625-2.647-2.341-2.647-.276 0-.502-.1-.502-.222s-.367-.292-.816-.376-.816-.246-.816-.36c0-.28-3.903-.266-4.001.014-.043.122-.621.264-1.284.315-1.718.134-1.941.446-1.941 2.71v1.882h1.29c.931 0 1.326-.097 1.423-.35.101-.264.528-.349 1.741-.349 1.273 0 1.607.072 1.607.349 0 .193.109.35.242.35.734 0 2.089 1.895 2.089 2.923 0 .572.105 1.04.233 1.04s.233.621.233 1.398c0 1.088.078 1.399.35 1.399.192 0 .349.105.349.233 0 .15-2.525.233-7.109.233s-7.11-.083-7.11-.233c0-.128-.349-.233-.776-.233-1.212 0-1.316-.437-1.381-5.828l-.057-4.778-2.273-.067-2.273-.067v4.774c0 2.93-.09 4.828-.233 4.917-.128.079-.233.347-.233.596s-.157.453-.349.453-.35.105-.35.233c0 .645-5.333.264-6.063-.433l-.697-.667v-6.326-6.327h-2.214-2.215v.716c0 .964-.475 1.376-1.638 1.422-.564.022-1.021.168-1.09.349-.067.174-.466.31-.91.31-.435 0-.791.105-.791.233s-.262.233-.583.233c-.362 0-.582.132-.582.35s-.221.35-.583.35c-.321 0-.583.105-.583.233s-.262.233-.583.233c-.362 0-.582.132-.582.35 0 .192-.206.349-.458.349-.552 0-2.326 1.816-2.334 2.389-.003.225-.11.408-.239.408-.143 0-.233 1.166-.233 3.031s.09 3.03.233 3.03c.129 0 .233.146.233.325s.164.387.365.464.299.245.22.374.124.356.451.505.596.36.596.467.262.196.583.196.583.105.583.233c0 .145 1.282.233 3.38.233s3.38-.088 3.38-.233c0-.128.367-.233.815-.233s.816.105.816.233.158.233.35.233.35.113.35.25c0 .475.668.916 1.389.916.428 0 .778.142.857.349.114.296.904.35 5.121.35 4.277 0 4.987-.05 4.987-.35 0-.198.209-.349.483-.349.265 0 .626-.144.802-.32.336-.335 1.512-.247 1.512.114 0 .113.525.206 1.166.206.88 0 1.165.085 1.165.349 0 .307 1.684.35 13.753.35s13.753-.043 13.753-.35c0-.198.209-.349.483-.349.265 0 .623-.141.795-.313.335-.334 1.752-.249 1.752.106 0 .114.356.207.791.207.488 0 .842.134.925.349.113.293.817.35 4.345.35s4.232-.057 4.344-.35c.074-.192.341-.349.593-.349s.598-.141.77-.313c.335-.334 1.752-.249 1.752.106 0 .114.356.207.791.207.488 0 .842.134.925.349.138.36 29.63.561 30.549.209.331-.127.369-1.587.369-14.103V62.471h-2.214-2.215v11.771 11.772h-3.147c-1.942 0-3.147-.089-3.147-.233 0-.128-.262-.233-.582-.233-.467 0-.583-.117-.583-.583 0-.32-.105-.583-.233-.583s-.233-.367-.233-.816c0-.569-.106-.815-.35-.815-.28 0-.35-.35-.35-1.749 0-1.01-.098-1.748-.233-1.748-.128 0-.233-.367-.233-.816 0-.57-.105-.816-.349-.816-.209 0-.35-.214-.35-.531 0-.292-.21-.682-.466-.867s-.466-.47-.466-.634-.119-.299-.264-.299-.465-.231-.71-.514a2.03 2.03 0 0 0-1.077-.597c-.346-.046-.73-.181-.852-.302-.285-.282-4.493-.286-4.596-.005-.042.118-.444.253-.893.3-1.619.171-1.865.525-1.865 2.69v1.925h1.056c.724 0 1.099-.11 1.191-.35.101-.263.525-.349 1.716-.349s1.615.086 1.716.349c.074.193.347.35.608.35s.473.105.473.233.157.233.35.233c.217 0 .349.22.349.583 0 .32.105.583.233.583s.234.253.234.563.1.598.223.641.25.786.281 1.651c.041 1.103.148 1.573.359 1.573.167 0 .302.262.302.583v.583h-6.746c-4.246 0-6.8-.086-6.89-.233-.08-.128-.61-.233-1.18-.233-.782 0-1.035-.089-1.035-.364 0-.199-.105-.298-.233-.219-.154.095-.233-3.688-.233-11.175V62.471h-2.331-2.331v11.205m42.424 2.897v14.103h2.215 2.214V76.573 62.471h-2.214-2.215v14.102M144.755 65.501c0 .128-.154.233-.342.233-.209 0-.29.137-.208.35.085.221-.003.35-.241.35-.288 0-.374.24-.374 1.049 0 .576.105 1.048.233 1.048s.233.142.233.314c0 1.255 3.117 1.907 4.216.883.728-.679.572-3.843-.195-3.952-.289-.041-.525-.172-.525-.291s-.629-.217-1.398-.217c-.777 0-1.399.104-1.399.233m4.826.219c-.68.689-.486 3.831.244 3.935.289.041.525.172.525.291s.629.217 1.398.217c.777 0 1.399-.103 1.399-.233s.157-.233.35-.233a.35.35 0 0 0 .349-.35c0-.192.105-.349.233-.349.592 0 .246-2.355-.448-3.049-.849-.849-3.3-.988-4.05-.229m98.729-.103c-.16.182-.291.534-.291.782s-.158.511-.35.585-.35.403-.35.732.158.657.35.731.35.348.35.608c0 .752.691 1.093 2.214 1.093 2.008 0 2.215-.226 2.215-2.432 0-1.454-.081-1.875-.408-2.123-.567-.43-3.346-.412-3.73.024m5.769-.143c0 .113-.21.261-.466.328-.959.251-.538 3.895.45 3.895.137 0 .249.105.249.233s.577.233 1.282.233 1.282-.105 1.282-.233.12-.233.266-.233c.52 0 .885-.834.893-2.04.004-.673-.098-1.223-.226-1.223s-.233-.158-.233-.35-.158-.35-.35-.35-.35-.105-.35-.233-.621-.233-1.398-.233c-.769 0-1.399.093-1.399.206m72.087 1.308c-.35.397-.401 3.381-.059 3.381.128 0 .233.158.233.35 0 .217.22.349.583.349.321 0 .583.105.583.234s.367.233.816.233.816-.105.816-.233.262-.234.582-.234.583-.112.583-.249.157-.407.35-.6c.206-.206.349-.776.349-1.389 0-.709-.111-1.082-.349-1.174-.193-.074-.35-.332-.35-.575 0-.574-3.642-.656-4.137-.093m-257.909.885c-.17.165-.568.48-.885.699s-.47.399-.34.399c.264 0 1.938-1.375 1.691-1.39-.087-.005-.297.126-.466.292m26.271 1.671c.499.443.95.763 1.003.71.134-.134-.577-.817-.851-.817-.123 0-.285-.158-.359-.35s-.261-.35-.417-.35.126.363.624.807m-30.391 1.76c-.811.775-.955 1.073-.326.677.396-.25 1.34-1.379 1.153-1.379-.051 0-.423.316-.827.702m-1.532 1.426c-.247.24-.338.436-.203.436.269 0 .89-.661.743-.791-.05-.045-.293.115-.54.355m87.278.32c0 .54-.109.816-.323.816-.177 0-.61.149-.96.33s-.835.293-1.076.247c-.265-.051-.438.048-.438.252 0 .228-.258.336-.802.336-.441 0-.867.105-.946.233s-.336.233-.572.233-.487.158-.561.35-.348.35-.608.35-.473.105-.473.233-.263.233-.583.233c-.363 0-.583.132-.583.35s-.22.349-.583.349c-.32 0-.582.087-.582.194s-.263.334-.583.505-.583.452-.583.623-.105.31-.233.31-.233.262-.233.583c0 .362-.132.582-.35.582-.244 0-.349.246-.349.816 0 .449-.105.816-.234.816s-.233.622-.233 1.399.104 1.398.233 1.398.234.367.234.816c0 .57.105.816.349.816.202 0 .35.211.35.497 0 .534.803 1.368 1.318 1.368.172 0 .314.105.314.233s.262.233.582.233.583.105.583.233c0 .145 1.282.233 3.38.233s3.38-.088 3.38-.233c0-.599 1.48-.212 2.229.583.543.575.973.816 1.46.816.398 0 .747.148.824.349.111.29.739.35 3.645.35s3.535-.06 3.646-.35c.077-.202.426-.349.825-.349.693 0 1.357-.449 1.357-.916 0-.137.42-.25.932-.25.543 0 .933.111.933.266 0 .414.752.884 1.428.892.337.004.743.165.903.357.228.275.883.35 3.066.35 2.252 0 2.801-.066 2.91-.35.074-.192.385-.349.692-.349s.558-.105.558-.233.154-.234.341-.234c.513 0 1.757-1.315 1.757-1.856 0-.266.153-.475.349-.475.218 0 .35-.22.35-.582 0-.321.105-.583.233-.583s.233-.461.233-1.024c0-.709.111-1.067.361-1.162.466-.179.415-2.243-.055-2.243-.212 0-.306-.359-.306-1.165 0-.641-.105-1.166-.233-1.166s-.233-.213-.233-.473-.157-.534-.35-.608-.349-.288-.349-.477c0-.457-1.267-1.705-1.731-1.705a.36.36 0 0 1-.367-.35c0-.218-.22-.35-.583-.35-.32 0-.583-.105-.583-.233 0-.144-1.209-.233-3.16-.233-2.048 0-3.11.082-3.017.233.079.128-.019.233-.219.233s-.364.158-.364.35c0 .198-.209.35-.482.35-.516 0-1.149.504-1.149.915 0 .138-.12.25-.266.25-.358 0-.883.72-.892 1.224-.004.224-.165.408-.357.408-.218 0-.35.22-.35.583 0 .32-.105.582-.233.582s-.233.218-.233.483-.158.64-.35.833-.35.604-.35.915-.104.567-.233.567-.233.367-.233.815-.105.816-.233.816-.233.164-.233.364-.106.298-.235.218-.297.019-.374.219-.391.365-.698.365-.558.105-.558.233-.699.233-1.631.233-1.632-.1-1.632-.233-.262-.233-.583-.233h-.583v-6.76-6.76h-2.214-2.215v.816m0 8.158v2.914h-.582c-.321 0-.583.105-.583.233s-.262.233-.583.233-.583.105-.583.233-.621.233-1.398.233-1.399-.103-1.399-.233-.213-.233-.474-.233c-.6 0-1.857-1.267-1.857-1.873 0-.252.098-.458.218-.458s.289-.227.377-.504c.211-.665 1.153-1.594 1.616-1.594.203 0 .428-.157.502-.349s.385-.35.692-.35.558-.105.558-.233.367-.233.816-.233c.57 0 .816-.106.816-.35 0-.252.259-.349.932-.349h.932v2.913m52.448-2.664c0 .323.593.916.916.916.137 0 .25.157.25.35s-.12.349-.266.349c-.358 0-.883.72-.893 1.224-.004.225-.119.408-.257.408-.295 0-.915.583-.915.86 0 .346-1.018.866-1.117.57-.048-.145-.341-.264-.651-.264-.346 0-.564-.136-.564-.35 0-.192-.104-.35-.233-.35s-.233-.21-.233-.466-.155-.466-.349-.466-.35-.113-.35-.25c0-.323-.593-.916-.916-.916-.137 0-.25-.157-.25-.349s-.104-.35-.233-.35-.233-.105-.233-.233.263-.233.583-.233c.363 0 .583-.132.583-.35 0-.289.44-.349 2.564-.349 1.668 0 2.564.087 2.564.249m51.282 2.664c0 2.447-.057 2.914-.353 2.914-.194 0-.561.105-.816.233l-.926.466c-.254.129-1.041.233-1.748.233s-1.285-.104-1.285-.233-.217-.233-.483-.233a1.17 1.17 0 0 1-1.149-1.149c0-.273-.151-.482-.35-.482a.35.35 0 1 1 0-.7c.199 0 .35-.209.35-.483 0-.516.505-1.148.916-1.148.137 0 .25-.105.25-.234s.213-.233.473-.233.534-.157.608-.349.333-.35.575-.35.442-.105.442-.233.419-.233.932-.233c.673 0 .932-.097.932-.35 0-.244.246-.349.816-.349h.816v2.913m-83.45-1.981c0 .128.245.233.544.233.334 0 .658.214.841.557a2.46 2.46 0 0 0 .855.855c.343.184.557.508.557.842 0 .299.105.543.233.543.726 0 .224 2.266-.689 3.11-.931.862-4.672 1.358-4.672.62 0-.128-.356-.233-.791-.233-.484 0-.842-.134-.923-.346-.073-.19-.284-.288-.468-.217s-.416-.004-.516-.165c-.103-.167-.063-.333.093-.385.151-.05.274-.439.274-.863 0-.471.136-.824.35-.906.192-.074.349-.347.349-.607s.105-.474.234-.474.233-.146.233-.325.157-.385.349-.459.35-.294.35-.491a.36.36 0 0 1 .357-.357c.196 0 .417-.157.491-.349s.385-.35.692-.35.558-.105.558-.233.157-.233.35-.233.349.105.349.233M49.819 87.648c-.445.52-.527.802-.17.581.229-.141.786-1.05.644-1.05-.04 0-.253.211-.474.469m214.05 5.476c0 .192-.112.349-.249.349-.587 0-.916.706-.916 1.965 0 .714.105 1.299.233 1.299s.233.157.233.349a.35.35 0 0 0 .35.35c.192 0 .349.105.349.233s.551.23 1.224.226c1.206-.008 2.04-.372 2.04-.893 0-.146.105-.265.233-.265s.233-.218.233-.483c0-.429.039-.444.35-.133.192.192.349.522.349.732 0 1.011 3.236 1.576 4.096.716.665-.665.456-4.096-.249-4.096-.376 0-.583-.131-.583-.368 0-.303-.238-.353-1.341-.282-.889.057-1.32.181-1.282.368.032.155-.099.282-.291.282-.213 0-.35.218-.35.558 0 .307-.157.618-.349.692-.214.082-.35 0-.35-.21 0-.858-1.283-1.739-2.531-1.739-.91 0-1.199.084-1.199.35m17.81.233c-.241.32-.57.582-.732.582-.204 0-.294.428-.294 1.399 0 1.088.077 1.399.349 1.399.193 0 .35.112.35.249 0 .57.706.916 1.865.916s1.865-.346 1.865-.916c0-.137.157-.249.349-.249.272 0 .35-.311.35-1.399 0-.839-.1-1.399-.25-1.399-.323 0-.916-.593-.916-.915 0-.568-2.47-.288-2.936.333m14.824-.25c0 .184-.236.367-.524.408-.767.109-.924 3.273-.195 3.952 1.062.989 3.983.466 3.983-.714 0-.265.112-.483.25-.483.322 0 .915.593.915.916 0 .138.158.25.35.25s.35.105.35.233c0 .504 3.059.271 3.527-.269.789-.909.606-2.87-.357-3.834-.893-.892-2.808-1.167-3.086-.442-.074.192-.235.349-.359.349-.302 0-.891.605-.891.916 0 .137-.157.25-.349.25s-.35-.207-.35-.464c0-.915-.705-1.401-2.033-1.401-.912 0-1.231.086-1.231.333M114.685 95.31c0 .162.158.452.35.644.447.447.442.108-.007-.486-.193-.254-.343-.323-.343-.158m-70.396 2.97c0 .31.063.326.35.088.192-.159.349-.329.349-.378s-.157-.088-.349-.088-.35.17-.35.378m44.658 1.57c.081.211.372.375.647.365.341-.013.388-.06.15-.148a2.83 2.83 0 0 1-.647-.364c-.222-.176-.259-.139-.15.147m-19.949 1.235c-.559.294-.562.307-.072.31.281.002.579-.108.664-.245.236-.382.047-.403-.592-.065m76.612 1.438c-.214.041-.389.172-.389.291s-.367.216-.815.216-.816.105-.816.233-.262.234-.583.234c-.363 0-.583.132-.583.349 0 .194-.207.35-.466.35s-.466.105-.466.233-.158.233-.35.233a.35.35 0 0 0-.349.35c0 .192-.105.349-.234.349s-.233.195-.233.434-.262.63-.582.871-.583.675-.583.965c0 .314-.142.528-.35.528-.258 0-.349.27-.349 1.035 0 .569-.105 1.1-.234 1.179s-.233.977-.233 1.995c0 1.079.098 1.851.233 1.851.129 0 .234.525.234 1.166 0 .88.085 1.165.349 1.165.237 0 .35.237.35.73 0 .533.221.939.816 1.5.448.423.816.836.816.918 0 .216.632.815.86.815.107 0 .391.262.632.583s.627.582.857.582.485.105.564.233.715.234 1.413.234c.972 0 1.268.081 1.268.349 0 .284.375.35 1.981.35s1.982-.066 1.982-.35c0-.272.31-.349 1.398-.349.777 0 1.399-.104 1.399-.234s.367-.233.816-.233c.57 0 .816-.105.816-.349 0-.218.22-.35.582-.35h.583V116.2v-4.778h-4.196-4.196v1.981 1.982h1.982 1.981v1.165c0 1.088-.039 1.166-.583 1.166-.32 0-.582.105-.582.233 0 .137-.816.233-1.982.233s-1.981-.096-1.981-.233c0-.128-.262-.233-.583-.233-.372 0-.583-.132-.583-.364 0-.2-.104-.298-.233-.219s-.233-.02-.233-.219-.112-.364-.25-.364c-.405 0-.915-.63-.915-1.129 0-.255-.114-.502-.252-.548-.348-.116-.354-4.453-.007-4.569.142-.048.262-.261.266-.475.008-.421.524-1.204.793-1.204.254 0 .831-.636.831-.916 0-.137.263-.25.583-.25s.583-.105.583-.233c0-.141 1.01-.233 2.564-.233s2.564.092 2.564.233c0 .128.262.233.583.233.363 0 .583.132.583.35 0 .244.246.35.816.35.714 0 .815-.073.815-.583 0-.321.105-.583.233-.583s.234-.262.234-.583c0-.362.132-.582.349-.582.244 0 .35-.247.35-.816s-.106-.816-.35-.816a.35.35 0 0 1-.349-.35c0-.217-.221-.349-.583-.349-.321 0-.583-.105-.583-.234s-.463-.233-1.029-.233-1.069-.117-1.117-.261c-.081-.242-4.843-.443-5.857-.246m86.649.216c-.16.16-.613.291-1.007.291s-.716.105-.716.233-.262.234-.583.234c-.362 0-.582.132-.582.349 0 .192-.184.353-.408.357-.504.009-1.224.534-1.224.893 0 .146-.12.265-.266.265-.358 0-.883.72-.892 1.224-.004.224-.165.408-.357.408-.218 0-.35.22-.35.583 0 .32-.105.583-.233.583s-.233.367-.233.815-.105.816-.233.816c-.141 0-.233 1.01-.233 2.564s.092 2.564.233 2.564c.128 0 .233.472.233 1.049s.105 1.049.233 1.049.233.263.233.583c0 .363.132.583.35.583a.35.35 0 0 1 .349.349c0 .193.105.35.234.35s.233.116.233.259c0 .366.988 1.364 1.357 1.369s.974.573.974.92c0 .137.262.249.582.249s.583.105.583.233.459.234 1.021.234c.622 0 1.133.136 1.31.349.216.26.792.35 2.25.35 1.528 0 1.99-.077 2.095-.35.098-.256.502-.349 1.508-.349.76 0 1.373-.105 1.373-.234s.367-.233.816-.233c.57 0 .816-.105.816-.349 0-.219.221-.35.588-.35h.587l-.063-4.72-.063-4.721-4.138-.063-4.137-.064v1.987 1.987h1.981 1.982v1.165c0 1.088-.039 1.166-.583 1.166-.321 0-.583.105-.583.233 0 .137-.816.233-1.981.233s-1.982-.096-1.982-.233c0-.128-.219-.233-.486-.233-.917 0-3.01-2.439-3.01-3.507 0-.507-.105-.922-.233-.922s-.233-.42-.233-.933.105-.932.233-.932.233-.367.233-.816c0-.57.105-.816.349-.816a.35.35 0 0 0 .35-.349c0-.193.105-.35.233-.35s.233-.21.233-.466c0-.299.156-.466.434-.466.238 0 .63-.263.871-.583.466-.621 5.455-.941 5.455-.35 0 .128.371.233.823.233.517 0 .874.13.958.35.251.654 1.716.455 1.716-.233 0-.321.105-.583.233-.583s.233-.217.233-.483.157-.64.35-.832.349-.556.349-.807-.157-.517-.349-.591-.35-.28-.35-.459c0-.191-.24-.324-.583-.324-.32 0-.583-.105-.583-.234s-.451-.233-1.002-.233-1.115-.113-1.254-.251c-.374-.375-5.675-.41-6.044-.04m-71.187 6.655c0 3.679.093 6.457.22 6.585.121.122.247.735.279 1.363.042.83.205 1.29.596 1.68.295.295.537.631.537.745 0 .426.887 1.212 1.368 1.212.286 0 .497.148.497.35 0 .194.207.349.466.349s.466.105.466.233.525.234 1.166.234c.88 0 1.165.085 1.165.349 0 .284.376.35 1.982.35s1.981-.066 1.981-.35c0-.264.285-.349 1.165-.349.641 0 1.166-.105 1.166-.234s.184-.233.41-.233.724-.365 1.107-.81.828-.814.989-.816.291-.163.291-.355.105-.35.233-.35.233-.251.233-.557.152-.617.338-.688c.284-.109.34-1.306.355-7.6l.018-7.472h-1.987-1.987v5.262c0 4.366-.06 5.321-.35 5.611-.216.216-.349.788-.349 1.498 0 .632-.105 1.149-.234 1.149s-.233.164-.233.364-.105.298-.234.218-.298.019-.375.219-.338.365-.581.365-.441.105-.441.233c0 .134-.738.233-1.749.233-.961 0-1.748-.087-1.748-.194s-.262-.334-.583-.505-.582-.452-.582-.623-.105-.31-.233-.31-.234-.262-.234-.583c0-.362-.132-.582-.349-.582-.302 0-.35-.842-.35-6.178v-6.177h-2.214-2.215v6.364m22.611 3.193v9.558h6.41 6.41v-1.982-1.981h-4.195-4.196v-7.576-7.576h-2.215-2.214v9.557m16.317 0v9.558h2.214 2.215v-3.963-3.963h3.963 3.962v-1.981-1.982h-3.962-3.963v-1.631-1.632h4.312 4.313v-1.981-1.982h-6.527H200v9.557m48.485 0v9.558h6.527 6.526v-1.982-1.981h-4.545-4.545V116.2v-1.981h3.962 3.963v-1.981-1.982h-3.963-3.962v-1.631-1.632h4.195 4.196v-1.981-1.982h-6.177-6.177v9.557m17.482.009v9.565l2.273-.066 2.273-.067.062-5.886c.039-3.657.149-5.886.291-5.886.126 0 .23.355.23.788s.162.922.36 1.086.306.44.24.611.032.313.223.313c.209 0 .342.225.342.582 0 .321.105.583.233.583s.233.262.233.583c0 .362.132.583.35.583.244 0 .35.246.35.815 0 .449.104.816.233.816s.233.263.233.583c0 .38.13.583.374.583.234 0 .326.129.243.343-.072.188.022.496.209.682s.339.662.339 1.056.105.716.233.716.233.262.233.583v.583h3.38 3.38v-9.558-9.557h-2.214-2.215v5.944c0 3.808-.083 5.944-.233 5.944-.128 0-.233-.213-.233-.473s-.157-.534-.349-.608-.35-.385-.35-.692-.105-.558-.233-.558-.233-.213-.233-.473-.158-.534-.35-.608c-.216-.083-.35-.437-.35-.925 0-.435-.104-.791-.233-.791s-.233-.262-.233-.583c0-.362-.132-.582-.349-.582s-.35-.22-.35-.583c0-.321-.105-.583-.233-.583s-.233-.367-.233-.816-.105-.815-.233-.815-.233-.214-.233-.474-.158-.534-.35-.608-.35-.34-.35-.592c0-.975-.491-1.124-3.713-1.124h-3.047v9.566m22.145-.009v9.558h6.177 6.177v-1.982-1.981h-4.196-4.195V116.2v-1.981h3.846 3.846v-1.981-1.982h-3.846-3.846v-1.631-1.632h4.195 4.196v-1.981-1.982h-6.177-6.177v9.557m17.482 0v9.558h2.215 2.214v-3.614-3.613h1.166c1.088 0 1.165.039 1.165.583 0 .321.105.583.233.583s.234.132.234.294.262.576.582.922.583.798.583 1.005.158.535.352.728.292.448.219.566.031.215.231.215.364.157.364.349.104.35.233.35.233.262.233.583c0 .362.132.582.349.582.193 0 .35.105.35.233 0 .141.971.234 2.448.234h2.447v-.597c0-.338-.101-.534-.233-.452s-.233-.115-.233-.453c0-.328-.094-.596-.208-.596s-.274-.263-.354-.583-.249-.583-.375-.583-.229-.157-.229-.35-.104-.349-.233-.349-.233-.21-.233-.466-.155-.467-.349-.467a.35.35 0 0 1-.35-.349c0-.193-.105-.35-.233-.35s-.233-.262-.233-.583c0-.362-.132-.582-.35-.582-.192 0-.35-.201-.35-.447s-.131-.5-.291-.565-.048-.125.25-.135c.57-.02 1.207-.513 1.207-.935a.25.25 0 0 1 .25-.249c.377 0 .915-.617.915-1.049 0-.211.158-.541.35-.733.255-.255.35-.877.35-2.298s-.095-2.042-.35-2.297c-.192-.193-.35-.567-.35-.833s-.104-.483-.233-.483-.233-.157-.233-.349-.132-.35-.294-.35-.491-.262-.732-.583c-.288-.383-.665-.582-1.104-.582-.367 0-.667-.105-.667-.234 0-.148-1.942-.233-5.361-.233h-5.362v9.557m24.243-8.741c0 .57-.106.816-.35.816s-.349.246-.349.816c0 .449-.105.816-.234.816s-.233.321-.233.713c0 .416-.097.653-.233.569-.253-.157-.274-.101-.333.917-.021.376-.165.725-.319.777s-.28.451-.28.889-.105.797-.233.797-.233.262-.233.582c0 .363-.132.583-.35.583-.244 0-.35.246-.35.816 0 .449-.105.816-.233.816s-.233.367-.233.816c0 .57-.105.816-.35.816s-.349.246-.349.815c0 .449-.105.816-.233.816s-.233.242-.233.536-.109.645-.242.778-.296.547-.363.921-.221.714-.341.757-.22.541-.22 1.107v1.03h2.215c2.206 0 2.214-.003 2.214-.583 0-.363.132-.583.35-.583.244 0 .349-.246.349-.816 0-.449.105-.816.233-.816s.234-.262.234-.582v-.583h3.263c3.652 0 4.196.211 4.196 1.632 0 .384.105.699.233.699s.233.367.233.816v.816h2.564c2.422 0 2.564-.027 2.564-.474 0-.26-.157-.534-.35-.608-.215-.082-.349-.437-.349-.925 0-.435-.105-.791-.233-.791s-.233-.367-.233-.816-.105-.815-.233-.815-.234-.263-.234-.583c0-.363-.132-.583-.349-.583-.244 0-.35-.246-.35-.816 0-.448-.105-.816-.233-.816s-.233-.367-.233-.815c0-.57-.106-.816-.35-.816-.252 0-.349-.259-.349-.933 0-.513-.105-.932-.233-.932s-.234-.262-.234-.583-.104-.583-.233-.583-.233-.318-.233-.706c0-.413-.145-.763-.349-.841-.216-.083-.35-.437-.35-.925 0-.435-.105-.791-.233-.791s-.233-.213-.233-.474-.158-.533-.35-.607c-.216-.083-.35-.437-.35-.925 0-.435-.104-.791-.233-.791s-.233-.262-.233-.583v-.583h-2.797-2.797v.816m15.734 8.741v9.558h6.469 6.468v-1.982-1.981h-4.196-4.195v-7.576-7.576h-2.273-2.273v9.557m-248.834-8.741c0 .192.17.35.378.35.31 0 .325-.063.088-.35-.16-.192-.33-.349-.378-.349s-.088.157-.088.349m-35.697 1.508c-.303.252-.419.461-.259.466s.291-.097.291-.226.158-.233.35-.233.35-.105.35-.233c0-.328-.107-.295-.732.226m252.946 1.872c0 .128.262.233.583.233.466 0 .583.117.583.583 0 .32.104.583.233.583s.233.157.233.349-.105.35-.233.35-.233.186-.233.414c0 .892-.811 1.218-3.033 1.218h-2.096v-1.982-1.981h1.982c1.165 0 1.981.096 1.981.233M55.078 109.95c-.284.297-.478.54-.431.54s-.394.472-.979 1.048-.975 1.049-.866 1.049c.289 0 3.155-2.998 2.958-3.095-.091-.045-.398.161-.682.458m278.022.19c0 .57.106.816.35.816s.35.246.35.816c0 .448.104.815.233.815s.233.263.233.583c0 .566-.047.583-1.632.583-1.295 0-1.632-.072-1.632-.35 0-.192.105-.349.233-.349s.234-.368.234-.816.104-.816.233-.816.233-.367.233-.816c0-.57.105-.816.349-.816.193 0 .35-.105.35-.233s.105-.233.233-.233.233.367.233.816m-226.107 2.52c0 .244.905 1.201 1.016 1.076.049-.055-.16-.36-.464-.677s-.552-.497-.552-.399m-22.261 6.779c-2.151 2.074-5.707 2.371-7.999.668-1.113-.827-1.199-.458-.134.577 1.465 1.426 4.784 2.353 5.32 1.486.07-.114.41-.278.755-.364.65-.163 2.408-1.754 2.408-2.179 0-.132.12-.281.268-.33s.226-.189.174-.311-.407.082-.792.453m22.261 2.434c0 .149-.157.272-.35.272a.35.35 0 0 0-.349.349c0 .192-.123.35-.272.35s-.204.068-.12.152.431-.128.773-.47.553-.69.47-.774-.152-.029-.152.121m-48.485 3.206c0 .14.367.588.816.996.562.512.816.632.816.388 0-.196-.119-.356-.264-.356s-.513-.288-.816-.641-.551-.527-.552-.387m283.127 2.558c-.077.201-.246.299-.375.219-.142-.088-.234.226-.234.802 0 .52-.105.946-.233.946s-.234.367-.234.816.105.815.234.815c.148 0 .233 1.799.233 4.929v4.928l.697.666c.726.694 4.897 1.063 4.897.433 0-.128.256-.233.569-.233s.634.105.713.233 1.082.233 2.228.233c1.234 0 2.084-.095 2.084-.233 0-.128.263-.233.583-.233s.583.105.583.233c0 .141 1.01.233 2.564.233h2.564v-5.827-5.828h-1.398-1.399v4.429 4.429h-1.166-1.165v-4.44-4.441l-1.34.07-1.341.07-.063 4.37-.064 4.371h-1.393-1.393v-1.981-1.982h-1.049c-.675 0-1.055.104-1.066.292-.01.16-.003 1.052.015 1.981l.032 1.69h-.848c-1.445 0-1.513-.205-1.513-4.529 0-2.42.087-3.863.233-3.863.344 0 .289-2.036-.059-2.176-.233-.094-.233-.121 0-.136.175-.011.292-.347.292-.834 0-.922-1.86-1.305-2.188-.452m-246.064 2.811c0 .31.063.326.35.088.192-.159.349-.33.349-.378s-.157-.088-.349-.088-.35.17-.35.378m191.375 4.969c0 2.848.091 4.705.233 4.793.129.079.234.505.234.946 0 .7.074.802.582.802.321 0 .583.105.583.233 0 .139.894.233 2.215.233s2.214-.094 2.214-.233c0-.129.617-.233 1.385-.233.762 0 1.45.105 1.529.233s1.207.233 2.578.233c1.467 0 2.433-.092 2.433-.233 0-.128.256-.233.569-.233s.634.105.713.233c.083.134 1.285.233 2.811.233h2.667v-5.827-5.828h-1.398-1.399v4.429 4.429h-1.398-1.399v-1.994-1.994l-1.107.071-1.108.071-.067 1.923-.068 1.923h-1.389c-.771 0-1.389-.104-1.389-.233s.157-.233.349-.233c.28 0 .35-.35.35-1.748s-.07-1.749-.35-1.749c-.192 0-.349-.105-.349-.233 0-.139-.894-.233-2.215-.233s-2.214.094-2.214.233c0 .128-.187.233-.415.233-.665 0-1.217.848-1.217 1.868 0 .511.105.93.233.93s.233.262.233.582c0 .511-.101.583-.816.583h-.815v-4.429-4.429h-1.399-1.399v4.648m21.912 1.18v5.827h1.165 1.166v-5.827-5.828h-1.166-1.165v5.828m-33.334-3.147v1.049h1.166 1.165v-1.049-1.049h-1.165-1.166v1.049m23.31 0v1.049h2.215 2.214v-1.049-1.049h-2.214-2.215v1.049m45.688 0v1.049h2.215 2.214v-1.049-1.049h-2.214-2.215v1.049m-203.179-.233c-.074.192-.391.349-.706.349s-.511.098-.438.217-.103.25-.394.291a.66.66 0 0 0-.602.6c-.041.288-.225.524-.408.524-.269 0-.333.496-.333 2.564 0 2.124.06 2.564.349 2.564.2 0 .35.21.35.488a.62.62 0 0 0 .466.61c.256.067.466.215.466.328s.158.206.35.206.35.105.35.233c0 .137.815.233 1.981.233s1.981-.096 1.981-.233c0-.128.254-.233.564-.233s.624-.131.699-.291c.109-.233.163-.233.272 0 .075.16.389.291.699.291s.563.105.563.233.622.233 1.399.233 1.399-.103 1.399-.233.217-.233.483-.233c.516 0 1.148-.504 1.148-.916 0-.137.158-.249.35-.249s.35.112.35.249.15.4.333.583.445.333.582.333.25.105.25.233.699.233 1.632.233 1.632-.1 1.632-.233.262-.233.582-.233c.363 0 .583-.132.583-.35 0-1.091.455-.109.513 1.108l.07 1.456 1.34.07 1.34.07v-.944-.944h1.166c.641 0 1.165-.105 1.165-.233s.113-.233.25-.233c.323 0 .916-.593.916-.916 0-.137.163-.249.363-.249s.311.086.245.191c-.174.282.721.974 1.259.974.255 0 .464.105.464.233s.699.233 1.632.233 1.631-.1 1.631-.233.263-.233.583-.233.583.105.583.233.621.233 1.398.233h1.399v-2.214-2.215h.816c.785 0 1.068.283.583.583-.129.079-.233.715-.233 1.412s.104 1.269.233 1.269.233.157.233.349a.35.35 0 0 0 .349.35c.193 0 .35.105.35.233 0 .137.816.233 1.981.233s1.982-.096 1.982-.233c0-.128.262-.233.583-.233.575 0 .582-.023.582-1.981 0-1.166.096-1.982.233-1.982s.233.667.233 1.533c0 2.534.522 2.884 4.288 2.88l2.939-.004v-1.871c0-1.664.038-1.833.349-1.522.193.192.35.663.35 1.046s.101.732.226.774.251.419.282.836l.057.757h1.699c1.656 0 1.699-.014 1.699-.583 0-.32.104-.582.233-.582s.233-.367.233-.816c0-.57.105-.816.349-.816.218 0 .35.22.35.583 0 .32.105.583.233.583s.233.262.233.582c0 .466.117.583.583.583.321 0 .583.105.583.233s.699.233 1.631.233 1.632-.1 1.632-.233.262-.233.583-.233c.507 0 .583-.103.583-.791 0-.488.134-.842.349-.925.253-.097.35-.492.35-1.423 0-.991-.081-1.29-.35-1.29-.193 0-.349-.207-.349-.463 0-1.079-.657-1.402-2.849-1.402-1.664 0-2.046.066-2.046.35 0 .192-.158.35-.35.35s-.35-.163-.35-.362c0-.292-.255-.348-1.34-.291l-1.34.07-.073.874c-.106 1.29-1.183.872-1.202-.466-.007-.473-.122-.525-1.173-.525h-1.165v-1.06-1.061l-1.341.07-1.34.07v1.05 1.05l-.874-.084c-.865-.083-.874-.095-.874-1.108v-1.025h-1.399-1.399v1.049c0 .987-.037 1.05-.641 1.058l-5.303.058c-4.64.05-4.662.052-4.736.574-.072.51-.508.76-.508.292 0-.128-.158-.233-.35-.233s-.35-.158-.35-.35c0-.488-3.613-.512-3.892-.026-.103.178-.397.363-.653.41-.27.051-.498.306-.541.609-.101.712-.508.663-.508-.061 0-.362-.132-.582-.35-.582-.192 0-.349-.149-.349-.33 0-.641-5.187-.384-5.475.271-.235.537-.586.711-.586.292 0-.128-.157-.233-.35-.233s-.349-.164-.349-.364c0-.306-.323-.357-2.016-.316-2.159.052-2.879.397-2.879 1.379 0 .259-.156.466-.35.466-.218 0-.35-.22-.35-.583 0-.466-.116-.582-.582-.582-.363 0-.583-.132-.583-.35 0-.282-.363-.35-1.865-.35s-1.865.068-1.865.35c0 .218-.22.35-.583.35-.466 0-.582.116-.582.582 0 .363-.132.583-.35.583-.192 0-.337.079-.322.175.133.84-.07 1.457-.48 1.457-.249 0-.517.105-.597.233s-.609.233-1.179.233-1.035-.105-1.035-.233-.157-.233-.35-.233c-.214 0-.349-.218-.349-.563 0-.31-.131-.612-.292-.671-.233-.085-.233-.168 0-.415.161-.17.292-.446.292-.612 0-.666.914-1.236 1.981-1.236.715 0 1.03.093.991.292-.038.188.229.291.757.291h.816l.077-1.34.077-1.341h-.926c-.608 0-.972-.12-1.06-.349-.095-.247-.481-.35-1.315-.35s-1.219.103-1.314.35m63.785 4.778v4.429h1.049 1.049v-4.429-4.429h-1.049-1.049v4.429m115.152-3.03v1.399h1.049 1.049v-1.399-1.399h-1.049-1.049v1.399m-238.148-.573c-.076.198-.073.425.007.505s.145-.021.145-.226.184-.419.408-.478c.383-.1.382-.108-.007-.133-.228-.015-.477.135-.553.332m.03 19.105l.064 9.131v-18.415c-.035-5.022-.064-.845-.064 9.284m199.656-18.066c0 .128-.246.233-.546.233-.668 0-1.785.916-1.785 1.465 0 .22-.105.4-.233.4s-.233.622-.233 1.399.104 1.398.233 1.398.233.187.233.415c0 .519.793 1.217 1.382 1.217.244 0 .49.131.546.291.179.514-.097.875-.671.875-.505 0-.558.098-.558 1.048v1.049h1.632c.933 0 1.632-.099 1.632-.233 0-.128.224-.233.499-.233.558 0 1.114-.604 1.125-1.224.004-.224.165-.407.357-.407.264 0 .35-.285.35-1.166 0-.641.105-1.165.233-1.165s.233-.466.233-1.036-.105-1.1-.233-1.179-.233-.61-.233-1.179c0-.765-.091-1.035-.35-1.035a.35.35 0 0 1-.349-.35c0-.194-.208-.35-.467-.35s-.466-.105-.466-.233-.524-.233-1.165-.233-1.166.105-1.166.233M78.663 147.552l.066 6.119v-12.237c-.036-3.366-.066-.612-.066 6.118m129.262-8.508v3.38h1.399 1.399v-2.214c0-2.275.058-2.421.757-1.89.33.25.408.673.408 2.207v1.897h1.166c.641 0 1.165-.105 1.165-.233s.21-.233.466-.233.467.105.467.233c0 .137.815.233 1.981.233s1.981-.096 1.981-.233c0-.128.146-.233.325-.233s.384-.156.457-.346c.159-.413.795-.229 1.343.388.303.341.73.424 2.173.424 2.472 0 2.462.015 2.462-3.713v-3.047h-1.049-1.049v1.982c0 1.958-.007 1.981-.583 1.981s-.582-.023-.582-1.981v-1.982h-1.166-1.165v1.749c0 1.01-.099 1.748-.233 1.748s-.233-.741-.233-1.756v-1.756l-2.506.066c-2.398.063-2.509.088-2.581.59-.041.289-.145.522-.233.517-.303-.014-.974-.628-.974-.892 0-.184-.859-.266-2.797-.266h-2.798v3.38m18.648 0v3.38h1.049 1.049v-2.214-2.215h.933c.581 0 .939.11.949.292.01.16.003 1.052-.015 1.981-.032 1.667-.024 1.69.566 1.69.329 0 .598.105.598.233 0 .136.777.233 1.864.233s1.865-.097 1.865-.233c0-.128.262-.233.583-.233s.583.105.583.233.524.233 1.165.233h1.166v-2.214c0-2.207.002-2.215.582-2.215s.583.008.583 2.215v2.214h1.399c1.336 0 1.398-.026 1.398-.583 0-.638.402-.79.615-.233.074.193.333.35.576.35s.441.105.441.233c0 .134.705.233 1.648.233 1.622 0 2.106-.188 2.348-.914.079-.238.27-.16.726.296.648.648 4.369.977 4.369.385 0-.128.262-.233.583-.233.466 0 .583-.117.583-.583 0-.362-.133-.582-.35-.582-.192 0-.35-.094-.35-.209s.158-.268.35-.342c.658-.253.477-3.018-.233-3.551-.321-.241-.583-.57-.583-.732 0-.455-3.818-.406-4.279.055-.192.192-.462.35-.599.35s-.25-.158-.25-.35c0-.286-.402-.35-2.215-.35-1.502 0-2.214.086-2.214.266 0 .861-1.558 1.158-1.764.337-.14-.559-.166-.563-2.86-.525l-2.719.039-.072.874c-.08.968-.51 1.214-.51.291 0-.362-.133-.582-.35-.582-.192 0-.35-.162-.35-.359 0-.301-.342-.348-2.156-.291l-2.156.067-.072.874c-.097 1.169-.511 1.122-.511-.058v-.933h-1.981-1.982v3.38m40.735-2.672c-.614.67-.641.802-.641 3.143 0 1.582-.088 2.443-.25 2.443-.137 0-.408.158-.602.352s-.437.299-.541.234-.25.04-.324.231c-.175.457-1.683.47-1.857.017-.072-.188-.315-.283-.561-.218-.295.077-.534-.077-.753-.485-.175-.328-.459-.597-.63-.597-.427 0-.393-1.084.04-1.25.239-.092.349-.467.349-1.19v-1.057h-1.081c-1.507 0-1.699.334-1.708 2.972-.004 1.186.09 2.157.209 2.157s.253.236.297.524.209.498.366.466.286.099.286.292c0 .219.221.349.596.349.339 0 .534.101.453.233-.093.151.891.233 2.783.233 1.796 0 2.928-.09 2.928-.233 0-.128.165-.233.367-.233 1.104 0 1.731-1.259 1.731-3.478 0-1.726.064-2.116.349-2.116.218 0 .35-.22.35-.583 0-.32.105-.583.233-.583s.233.525.233 1.166c0 .88.086 1.165.35 1.165.244 0 .349.246.349.816 0 .652.091.816.453.816.249 0 .517.105.596.233.084.136 1.401.233 3.161.233h3.016v-3.392-3.393l-1.107.071-1.107.071-.068 1.923-.067 1.923h-1.39-1.389v-1.981-1.982l-2.389.005c-2.354.004-2.399.014-3.03.703m60.806-.339c-.078.203-.142 1.094-.142 1.981v1.613h-1.399-1.398v-.816c0-.449-.105-.816-.233-.816s-.233-.262-.233-.582c0-.467-.117-.583-.583-.583-.363 0-.583.132-.583.349s-.22.35-.583.35c-.754 0-.902 2.35-.174 2.786.388.233.388.256 0 .489-.225.135-.408.398-.408.585 0 .648-1.203 1.735-1.92 1.735-.682 0-1.344-.452-1.344-.916 0-.138-.157-.25-.349-.25-.284 0-.35-.376-.35-1.981 0-1.958-.007-1.982-.583-1.982-.32 0-.583-.105-.583-.233s-.209-.233-.466-.233c-.336 0-.466.156-.466.558 0 .307-.157.618-.35.692-.275.105-.349.583-.349 2.239 0 1.716.064 2.106.349 2.106.199 0 .35.209.35.482a1.17 1.17 0 0 0 1.149 1.149c.265 0 .483.105.483.233 0 .141.951.233 2.389.233 2.43 0 3.671-.462 3.671-1.367 0-.145.158-.264.35-.264.218 0 .35-.22.35-.583 0-.548.074-.583 1.223-.583l1.224-.001-.079 1.399-.079 1.399h2.235 2.236v-1.262c0-.792-.109-1.307-.292-1.38-.16-.065.364-.126 1.166-.136s1.457-.123 1.457-.252.262-.233.582-.233.583.105.583.233.699.233 1.632.233 1.631-.1 1.631-.233.263-.233.583-.233c.363 0 .583-.132.583-.35 0-.192.105-.349.233-.349.138 0 .233-.861.233-2.115 0-2.084-.229-2.78-.916-2.78-.137 0-.249-.158-.249-.35 0-.744-3.357-.47-4.188.342-.389.38-.707.8-.707.932s-.158.241-.35.241c-.235 0-.35.235-.35.716 0 1-.479 1.382-1.731 1.382h-1.066v-1.981-1.982h-1.024c-.719 0-1.066.11-1.165.369m-33.242 1.949c0 .658-.326.755-.774.232-.519-.606-.497-.685.191-.685.421 0 .583.125.583.453m-145.688.246c0 .129.157.234.35.234.217 0 .349.22.349.582 0 .525-.093.583-.932.583s-.932-.058-.932-.583c0-.362.132-.582.349-.582.193 0 .35-.105.35-.234s.105-.233.233-.233.233.105.233.233m6.76 0c0 .129.157.234.35.234.442 0 .45.399.016.832-.582.582-1.531.428-1.531-.25 0-.362.132-.582.349-.582.193 0 .35-.105.35-.234s.105-.233.233-.233.233.105.233.233m6.427.1c.563.563.421 1.299-.25 1.299-.51 0-.583-.101-.583-.816 0-.865.286-1.03.833-.483m24.575.483c0 .777-.038.816-.815.816s-.816-.039-.816-.816.039-.816.816-.816.815.039.815.816m59.907-.583c0 .129.262.234.583.234.466 0 .583.116.583.582 0 .537-.085.583-1.066.583-1.409 0-2.059-.58-1.44-1.283.333-.379 1.34-.466 1.34-.116m36.264.1c.657.657.418 1.299-.483 1.299-.777 0-.816-.039-.816-.816 0-.901.642-1.139 1.299-.483m53.946-.1c0 .129.157.234.35.234.217 0 .349.22.349.582 0 .544-.077.583-1.165.583-.641 0-1.166-.105-1.166-.233s.105-.233.233-.233.233-.262.233-.583c0-.466.117-.583.583-.583.321 0 .583.105.583.233m-122.378.947c0 .416-.097.653-.233.569-.128-.08-.233-.401-.233-.713s.105-.569.233-.569.233.32.233.713m19.115.802c0 .192-.105.349-.234.349s-.233-.157-.233-.349.105-.35.233-.35.234.157.234.35m96.435 2.272c-.059.161-.241.26-.406.221s-.386.066-.492.233c-.134.212-.193.146-.196-.22-.003-.41.129-.525.599-.525.383 0 .563.106.495.291m-68.405 3.554c-.418.475-.359 1.463.116 1.972.525.562 3.737.648 3.945.107.069-.181.272-.33.451-.33.216 0 .325-.273.325-.815 0-.57-.106-.816-.35-.816-.192 0-.35-.105-.35-.233 0-.384-3.791-.278-4.137.115m-206.352 7.45c0 .163 1.167 1.292 1.336 1.292.082 0-.152-.314-.52-.699-.66-.689-.816-.802-.816-.593m47.007 3.116c-.559.618-.477.83.099.255.267-.267.441-.53.387-.584s-.273.094-.486.329m-2.491 2.495c-.823.83-1.42 1.509-1.328 1.509.228 0 3.028-2.813 2.914-2.927-.05-.05-.764.588-1.586 1.418m-11.053 9.337c-.378.276-.39.33-.072.33.21 0 .45-.111.535-.248.247-.4.025-.439-.463-.082" fill="#2b3494"/><path d="M42.657 105.718c0 .197.161.419.357.494s.566.57.823 1.1c2.154 4.44 5.813 9.375 5.813 7.84 0-.257-.087-.467-.194-.467-.173 0-1.636-1.983-2.253-3.055-2.495-4.328-4.546-6.995-4.546-5.912m36.134-.202c-.002.149-.423.341-.936.428s-.932.253-.932.37-.111.213-.247.213-.173-.131-.082-.292-.219.129-.687.641-.799 1.07-.736 1.238.011.773-.117 1.345c-.429 1.917.137 3.394.937 2.441.309-.369 1.432-.944 1.843-.944.253 0 .525-.105.604-.233s.869-.233 1.754-.233c2.521 0 4.242.996 5.731 3.317.597.932.867 5.54.324 5.54-.128 0-.233.218-.233.483 0 .512-.367.986-.937 1.21-.19.074.294.144 1.076.154.886.011 1.711-.126 2.191-.366.648-.323.847-.336 1.259-.079.432.269.455.262.196-.051-.324-.393.18-1.055.604-.793.414.256 1.155-.639.962-1.161-.099-.268-.086-.635.028-.816.288-.455.272-3.476-.018-3.476-.128 0-.233-.524-.233-1.165 0-.808-.089-1.148-.291-1.108-.164.033-.324-.222-.365-.582-.041-.353-.172-.641-.292-.641s-.217-.269-.217-.597c0-.338-.101-.534-.233-.452s-.234-.02-.234-.22-.157-.363-.349-.363-.35-.112-.35-.25c0-.322-.468-.782-1.005-.985-.233-.088-.358-.266-.278-.395s-.075-.235-.345-.235-.753-.262-1.074-.583-.84-.582-1.155-.582-.572-.105-.572-.233-.524-.233-1.165-.233-1.166-.105-1.166-.234-.621-.233-1.398-.233c-.962 0-1.4.091-1.402.292-.003.194-.079.175-.23-.059-.128-.198-.228-.232-.23-.078m-4.665 1.655c0 .141-.236.289-.525.331-.31.044-.419.142-.267.241.312.203 1.213-.407.966-.653-.096-.096-.174-.06-.174.081m37.335 10.749c-.243.153-.179.339.291.846.331.357.602.791.602.965s.091.316.201.316.623.655 1.14 1.456l3.788 6.229c0 .132.154.24.343.24.414 0 .152-.841-.582-1.873-.254-.356-.461-.707-.461-.781s-.437-.845-.971-1.712l-1.224-2.045c-.411-.759-2.573-3.83-2.7-3.834-.064-.003-.256.084-.427.193m74.416 47.115l.077 2.04v-4.08c-.042-1.121-.077-.204-.077 2.04m32.158.466c0 1.346.038 1.897.086 1.224a21.27 21.27 0 0 0 0-2.448c-.048-.673-.086-.122-.086 1.224m-45.685.583c.001 1.538.038 2.137.084 1.331s.045-2.065-.001-2.797-.083-.073-.083 1.466m-10.757-1.515c0 .448.048.632.106.408s.059-.592 0-.816-.106-.041-.106.408" fill="#bbe2ef"/><path d="M77.04 61.538c.124.202-.339.342-.866.264-.092-.014-.107.131-.033.322s.007.347-.148.347-.57.207-.925.459-.729.384-.831.292-.122-.057-.045.08c.173.305-1.139 1.119-1.471.913-.131-.081-.21-.046-.174.079.095.337-1.268 1.44-1.782 1.44-.245 0-.385.061-.31.136.135.136-.638 1.03-.891 1.03-.073 0-.292.158-.485.352s-.465.282-.602.197-.184-.047-.101.088c.194.313-.446.849-.772.648-.137-.085-.221-.064-.186.047.138.431-2.304 2.474-2.68 2.242-.132-.083-.173-.039-.09.096s-.083.467-.371.738c-1.446 1.359-2.622 2.352-2.787 2.352-.102 0-.185.139-.185.31s-.262.451-.582.622-.583.406-.583.52c0 .347-3.21 3.417-3.397 3.249-.096-.086-.106-.037-.023.109s-.005.395-.196.553-.347.395-.347.525-.367.55-.816.933-.816.83-.816.992-.157.356-.349.429-.35.25-.35.392c0 .299-.578.922-.857.925-.223.002-.775 1.114-.775 1.559 0 .167-.163.304-.363.304s-.305.093-.234.208-.033.271-.23.347-.515.51-.705.966-.447.766-.57.69-.167.008-.099.187-.037.459-.235.623-.361.444-.361.62-.118.295-.263.263-.286.199-.314.513-.172.611-.32.66-.268.291-.268.536-.093.447-.206.447-.264.221-.334.49-.24.42-.377.336c-.143-.089-.261.05-.278.326-.056.93-.602 2.181-.876 2.012-.114-.071-.203.002-.197.16.031.853-.09 1.349-.296 1.222-.136-.084-.233.153-.233.569 0 .463-.117.713-.335.713-.224 0-.301.181-.233.554.057.317-.05.679-.249.845-.192.159-.349.585-.349.946s-.105.722-.233.802-.236.373-.241.654a1.94 1.94 0 0 1-.349.964c-.188.248-.342.805-.342 1.237 0 .464-.096.726-.234.641-.128-.079-.233.014-.233.206s.305.53.677.75.9.829 1.174 1.353c.621 1.191.923 1.69 1.587 2.629.289.408.525.854.525.991s.105.248.233.248.233.149.233.33.079.366.175.408c.225.1 1.457 1.99 1.457 2.236 0 .102.184.349.408.549s.632.65.905 1.001l.497.638.66-.658c.362-.362.75-.629.86-.594s.134-.044.052-.176.016-.304.216-.38.366-.26.369-.407.465-.712 1.029-1.257l.937-.99c-.049 0 .143-.242.427-.538s.665-.487.846-.426c.207.069.267.009.161-.162-.101-.164-.023-.273.195-.273.2 0 .363-.154.363-.342 0-.227.139-.293.408-.196.225.08.338.068.253-.027-.177-.197.616-1.067.971-1.067.128 0 .233-.083.233-.185 0-.213 3.34-2.577 3.77-2.668.156-.033.512-.297.79-.585s.729-.524 1.003-.524.498-.094.498-.208.262-.274.583-.354.582-.25.582-.375.204-.229.453-.229.517-.105.596-.233.407-.233.727-.233.523-.097.45-.214.182-.284.567-.368.758-.25.831-.369.436-.215.805-.215.737-.105.816-.233.508-.233.953-.233c.505 0 .86-.132.944-.35.1-.26.515-.349 1.624-.349.839 0 1.491-.102 1.491-.233s.565-.233 1.257-.233c1.679 0 1.546 1.632 1.537-18.903-.009-19.93.053-18.86-1.085-18.86-.477 0-.746.095-.66.233m5.711 18.369v18.617h.779c.429 0 .98.084 1.224.188s.916.234 1.493.289 1.149.198 1.27.317.522.216.888.216c.396 0 .607.097.519.239-.081.131-.061.216.045.188.373-.097 1.707.312 1.707.524 0 .118.213.214.474.214s.534.16.609.354.262.326.417.291c.382-.084 1.996.56 1.996.797 0 .105.199.19.442.19s.501.157.575.35.347.349.608.349.473.105.473.233.133.234.294.234.577.262.922.582.745.583.886.583.192.105.113.233.023.233.227.233.431.158.504.35.31.35.524.35.544.221.733.492.74.746 1.226 1.057.82.666.743.79.025.225.225.225.783.419 1.296.932 1.034.932 1.158.932.165.158.092.35-.011.35.14.35c.35 0 .941.584.941.929 0 .145.098.203.218.129s.304.01.408.187c.296.504 1.522 2.024 2.229 2.763.353.369.641.767.641.885 0 .469 1.265 1.384 1.746 1.264.453-.114 1.518.545 1.518.938 0 .09.131.31.291.489.692.771.874 1.035.874 1.264 0 .133.105.243.233.243s.233.141.233.313.262.618.583.991.582.849.583 1.06.148.44.329.509.464.5.629.958.385.831.487.831.187.144.187.321.157.451.349.611.35.487.35.728.105.438.233.438.233-.409.233-.908c0-.592.122-.954.35-1.042.286-.109.349-.685.349-3.158 0-1.764.097-3.083.233-3.168.129-.079.234-.557.234-1.062s-.105-.919-.234-.919c-.144 0-.233-1.272-.233-3.351 0-2.695-.068-3.409-.349-3.642-.238-.197-.35-.725-.35-1.646 0-.746-.105-1.422-.233-1.501s-.233-.459-.233-.845-.105-.896-.233-1.135-.283-.834-.346-1.324-.22-.925-.35-.968-.237-.431-.237-.862-.093-.84-.206-.91-.276-.496-.361-.946-.253-.819-.376-.819-.222-.262-.222-.582-.105-.583-.233-.583-.233-.255-.233-.566-.165-.731-.366-.932c-.222-.222-.307-.549-.217-.832.105-.332.042-.467-.218-.467-.2 0-.373-.184-.382-.408s-.218-.723-.464-1.107-.509-.857-.586-1.049c-.395-.984-.709-1.534-.972-1.702-.161-.102-.292-.391-.292-.641s-.111-.455-.247-.455-.186-.097-.112-.217-.089-.373-.362-.564-.432-.449-.354-.574-.017-.288-.208-.361-.349-.249-.349-.391-.163-.42-.363-.62-.308-.507-.24-.683-.015-.319-.183-.319-.503-.367-.745-.816-.504-.816-.583-.816-.343-.383-.588-.851-.946-1.38-1.56-2.026c-.707-.745-1.065-1.305-.978-1.531.075-.196.07-.289-.012-.208-.18.181-1.039-.52-1.048-.855-.003-.132-.367-.502-.809-.823s-.806-.669-.81-.774c-.007-.229-.61-.857-.822-.857-.242 0-.816-.644-.816-.916 0-.137-.157-.25-.349-.25s-.35-.163-.35-.363-.105-.299-.233-.22-.233.026-.233-.119c0-.334-.587-.93-.916-.93a.25.25 0 0 1-.25-.249c0-.272-.574-.916-.816-.916-.082 0-.299-.15-.482-.333s-.333-.4-.333-.483c0-.184-.732-.931-.916-.936-.376-.009-1.646-1.182-1.55-1.432.063-.164-.018-.239-.188-.174-.165.063-.815-.361-1.445-.943s-1.325-1.117-1.543-1.188c-.521-.17-2.028-1.682-1.852-1.858.075-.075-.017-.08-.206-.01s-.696-.186-1.132-.571-.938-.697-1.121-.697-.266-.105-.187-.233-.02-.233-.22-.233-.363-.105-.363-.233-.262-.233-.583-.233c-.362 0-.583-.132-.583-.35 0-.192-.163-.349-.363-.349s-.311-.084-.248-.187-.245-.211-.686-.24l-.8-.054v18.616m142.067-3.45l.065 6.585v-13.17c-.036-3.622-.065-.659-.065 6.585m-77.324 26.045a13.38 13.38 0 0 0 1.982 0c.544-.049.099-.09-.991-.09s-1.536.041-.991.09m86.604.001c.613.048 1.557.047 2.098-.002s.039-.088-1.114-.087-1.597.04-.984.089m111.463 9.968l.068 4.472v-9.091c-.038-2.46-.069-.381-.068 4.619m-303.425-6.119c-.057.16-.129.973-.158 1.807s-.151 1.55-.27 1.592c-.286.103-.286 12.462 0 12.755.119.122.25.982.292 1.911.051 1.156.167 1.69.366 1.69s.291.386.291 1.152c0 .633.105 1.217.233 1.296s.234.432.234.785a2.12 2.12 0 0 0 .342 1.093c.188.249.345.846.349 1.327s.09.874.19.874c.175 0 .714 1.568.844 2.459.035.236.185.47.335.52s.271.335.271.634.114.582.254.629.271.37.291.718.111.634.201.634c.143 0 .392.472.984 1.865.082.193.459.874.839 1.515s.756 1.349.836 1.574.238.408.351.408.206.201.206.447.102.481.227.524.261.311.304.596.168.6.278.699.113.034.008-.146c-.127-.22-.101-.273.08-.161.148.091.269.317.269.502s.093.336.208.336.274.266.356.592c.091.364.251.529.415.428.175-.108.215-.032.117.224s-.03.388.193.388c.188 0 .342.149.342.333s.164.497.365.697.299.47.219.6-.026.234.119.234c.399 0 1.248 1.046 1.538 1.895.071.208.38.512.685.676s.51.37.455.459.207.457.582.817.628.743.561.851-.019.198.107.198c.216 0 1.663 1.328 1.663 1.527s3.542 3.601 3.747 3.601c.119 0 .216.107.216.238s.577.806 1.282 1.5 1.282 1.218 1.282 1.166.547.426 1.216 1.064 1.294 1.16 1.388 1.16.527.367.963.816.919.816 1.074.816.219.101.142.226.126.293.452.375.592.242.592.356.11.208.244.208.506.262.827.583.752.583.96.583.309.069.224.154c-.154.154.536.642 1.3.918.225.081.408.24.408.353s.158.206.35.206a.35.35 0 0 1 .349.35c0 .192.204.35.453.35s.517.105.596.233.453.233.83.233h.686v-5.944c0-4.6.065-5.944.291-5.944s.291-2.627.291-12.355v-12.354h-.594c-.327 0-.712-.118-.857-.262s-.737-.275-1.317-.291-1.186-.161-1.346-.321-.579-.291-.93-.291-.704-.105-.783-.233-.511-.234-.96-.234-.756-.096-.684-.214-.182-.283-.566-.367-.758-.251-.832-.369-.389-.215-.702-.215c-.367 0-.569-.133-.569-.375 0-.225-.13-.324-.327-.249-.179.069-.52-.021-.757-.201s-.614-.329-.839-.333-.408-.112-.408-.241-.109-.233-.242-.233-.37-.107-.525-.237c-1.083-.913-1.427-1.161-1.613-1.161-.116 0-.136-.121-.045-.269.098-.159.065-.207-.081-.116-.293.18-2.688-1.336-2.464-1.56.084-.084-.022-.153-.235-.153s-.389-.105-.389-.233-.121-.233-.269-.233-.673-.412-1.166-.915-.896-.853-.896-.779-.519-.406-1.152-1.067-1.263-1.202-1.399-1.202-.246-.14-.246-.31-.262-.451-.583-.623-.583-.457-.583-.635-.105-.26-.233-.18-.233.005-.233-.164-.365-.726-.811-1.238-.814-1.072-.816-1.246c-.003-.184-.15-.26-.354-.182-.193.074-.35.025-.35-.108s-.163-.406-.363-.606-.306-.512-.236-.694.03-.272-.088-.199-.318-.047-.441-.268c-.176-.314-.297-.342-.551-.131-.44.365-1.303.111-1.476-.434-.077-.243-.237-.441-.357-.441s-.217-.113-.217-.25-.132-.396-.292-.575c-.683-.762-.874-1.033-.874-1.244a.35.35 0 0 0-.175-.301c-.306-.136-1.457-2.035-1.457-2.404 0-.195-.1-.355-.222-.355s-.404-.393-.627-.874-.648-1.198-.944-1.595-.538-.948-.538-1.224c0-.543-.35-.685-.521-.211m43.169 10.345c-1.26 3.817-6.515 4.829-9.256 1.783l-.758-.842v.862c0 .608.12.906.408 1.012.225.083.723.38 1.108.66 2.075 1.512 5.322 1.364 7.49-.341.32-.252.706-.428.858-.392s.201.022.11-.03.039-.479.291-.949c.468-.874.63-2.609.243-2.609-.118 0-.341.381-.494.846m25.027 1.31c-.102.16-.187.384-.189.498-.009.554-7.07 7.58-7.448 7.412-.091-.04-.354.143-.584.408s-.542.482-.695.482-.22.093-.149.208c.156.253-.522.547-.828.358-.119-.074-.189.004-.153.174s-.067.282-.228.25-.291.088-.291.266-.238.384-.529.457-.759.347-1.039.609-.636.475-.79.475-.603.241-1 .536-1.178.682-1.737.861-1.064.451-1.123.605-.415.259-.791.233-.683.035-.683.136-.282.255-.626.341a6.54 6.54 0 0 0-1.168.438 2.33 2.33 0 0 1-1.124.218c-.319-.035-.529.021-.465.124.159.257-.462.47-1.368.47-.413 0-.85.095-.972.211s-1.027.248-2.012.295-1.841.135-1.901.197c-.204.21-.21.779-.182 19.169l.027 18.357h.933c.513 0 .932-.105.932-.233s.158-.233.35-.233a.35.35 0 0 0 .349-.35c0-.194.208-.35.467-.35s.466-.105.466-.233.157-.233.35-.233.349-.098.349-.217.229-.29.508-.379.765-.4 1.08-.692.848-.673 1.183-.846c.721-.371 1.192-.788 1.192-1.056 0-.106.341-.341.757-.522s.989-.574 1.271-.873.621-.543.752-.543.573-.367.981-.816.883-.816 1.055-.816.312-.175.312-.388.06-.329.133-.256.583-.317 1.134-.868 1.226-1.072 1.502-1.159.452-.239.393-.335.568-.847 1.395-1.667 1.508-1.389 1.513-1.264.167-.065.361-.422.454-.584.579-.507.199.052.164-.056c-.074-.227.299-.717 1.469-1.927.459-.475.904-1.045.989-1.266.089-.231.271-.332.426-.236.163.1.208.065.113-.088-.087-.14-.022-.34.144-.444s.471-.451.676-.772.706-.927 1.111-1.348.686-.847.624-.948.091-.33.34-.51.454-.461.454-.625.126-.272.281-.24.298-.073.32-.233l.069-.481c.016-.104.232-.406.479-.672s.483-.678.524-.918.311-.626.6-.86.524-.627.524-.874.103-.449.229-.449.294-.262.375-.583.213-.584.296-.585.348-.418.591-.926.509-.88.592-.83.172-.18.199-.514.194-.772.369-.974.276-.482.225-.623.067-.39.263-.553.358-.494.358-.735.105-.437.233-.437.233-.254.233-.563.078-.599.175-.642c.239-.106.99-2.355.99-2.964 0-.291.149-.493.364-.493.267 0 .336-.173.261-.653-.057-.359.042-.852.219-1.094.466-.638.415-1.517-.088-1.517-.424 0-1.688-1.84-1.688-2.457 0-.187-.1-.34-.222-.34s-.407-.393-.632-.874-.519-1.002-.652-1.157c-.713-.834-.825-.998-.825-1.203 0-.123-.079-.258-.175-.301-.196-.087-1.457-1.975-1.457-2.182 0-.073-.262-.376-.583-.673-.382-.354-.582-.79-.582-1.271 0-.749-.295-.957-.624-.439m235.199 20.105c.001.897.043 1.236.094.752s.049-1.218-.002-1.631-.093-.019-.092.879" fill="#245cac"/><path d="M76.535 106.177c0 .192.087.35.194.35s.194-.098.194-.217.236-.262.525-.318c.4-.077.354-.108-.195-.133-.497-.022-.718.076-.718.318m-.544.327c0 .187-.173.232-.496.13-.333-.106-.443-.073-.336.101.09.145.006.258-.192.258-.193 0-.634.262-.98.583s-.717.583-.825.583c-.332 0-1.117.77-.992.973.065.106-.01.192-.167.192s-.222.063-.145.141-.115.378-.427.668-.569.601-.569.691-.157.322-.349.515-.35.545-.35.785-.105.501-.233.58-.233.557-.233 1.063-.105.918-.233.918c-.137 0-.233.816-.233 1.982s.096 1.981.233 1.981c.128 0 .233.461.233 1.024 0 .67.114 1.068.332 1.151.193.074.282.315.214.576-.072.275.025.503.251.59.203.077.368.302.368.498s.105.357.234.357.233.16.233.357.157.417.349.491.35.28.35.459.084.325.188.325.588.367 1.078.815 1.023.816 1.186.816.355.156.428.346c.081.21.284.287.52.197s.471 0 .603.237c.125.223.506.386.904.386.378 0 .687.105.687.233 0 .142 1.049.233 2.681.233s2.681-.091 2.681-.233c0-.128.291-.233.647-.233s.881-.164 1.166-.363.612-.306.727-.235.268-.028.342-.219.275-.349.448-.349.727-.367 1.231-.815.995-.816 1.091-.816.175-.133.175-.295.262-.491.583-.732.583-.626.583-.857.114-.491.255-.578.21-.393.155-.68c-.068-.356.009-.515.241-.497.187.014.378-.204.424-.484.065-.403-.027-.504-.438-.483-.822.041-1.171.397-.815.828.259.313.236.32-.196.051-.412-.257-.611-.244-1.259.079-.466.232-1.34.384-2.213.384-1.147 0-1.53.096-1.865.466-.232.257-.616.467-.852.467s-.43.104-.43.233c0 .402-4.709.29-5.557-.133-.975-.486-2.602-2.167-2.602-2.688 0-.228-.105-.48-.233-.559-.405-.25-.281-3.911.162-4.799 1.378-2.763 5.044-4.231 7.88-3.155.283.108.237.037-.117-.18-.666-.409-3.845-.519-4.079-.141-.079.128-.351.233-.604.233-.411 0-1.534.575-1.843.944-.8.953-1.366-.524-.937-2.441.128-.572.178-1.185.11-1.362s.158-.605.503-.95.559-.696.476-.779-.152-.023-.152.136m-28.205 6.083c.273.385.55.7.614.7s-.107-.315-.381-.7-.551-.699-.615-.699.108.315.382.699m30.631 1.751c-.179.711.133 1.127.754 1.007.672-.129.601-1.452-.084-1.549-.392-.056-.553.074-.67.542m7.059 5.925c-.451.767-.348.936.222.366.193-.193.316-.515.275-.716-.053-.257-.201-.153-.497.35" fill="#68cceb"/><path d="M79.138 111.422l-1.166.16 1.376.036c4.142.111 4.209 6.098.069 6.098-2.529 0-3.858-3.607-1.975-5.361.276-.257.384-.467.241-.467s-.418.157-.61.35-.417.349-.5.349c-.523 0-2.071 2.764-1.929 3.446.046.224.229-.086.416-.707.411-1.366.593-1.393.795-.116.335 2.124 1.813 3.458 3.849 3.474 2.945.022 4.815-2.945 3.635-5.77-.19-.454-.321-.939-.292-1.079.114-.545-1.616-.728-3.909-.413m6.426 2.914c0 .128.15.495.333.816s.334.477.334.349-.15-.495-.334-.816-.333-.478-.333-.349m-5.902 8.21c.417.052 1.098.052 1.515 0s.076-.094-.757-.094-1.175.043-.758.094M192.6 161.422c.002.513.05.695.106.405a2.57 2.57 0 0 0-.005-.932c-.058-.223-.104.014-.101.527m.024 5.128c-.001 1.154.038 1.655.087 1.114s.05-1.485.001-2.098-.088-.17-.088.984" fill="#3185c5"/><path d="M42.96 105.044c.231.068.727.612 1.103 1.211s.682.983.68.855c-.007-.496-1.314-2.098-1.746-2.142-.39-.039-.395-.028-.037.076m.979 3.348c.199.384.414.699.479.699s-.047-.315-.246-.699-.414-.7-.478-.7.047.315.245.7m3.564 3.355c.348.563.674.985.725.937.102-.097-1.088-1.961-1.253-1.961-.057 0 .181.461.528 1.024m30.98-.554c-1.744.663-3.819 2.476-3.36 2.936.072.071.261-.113.419-.41.324-.604.805-1.132 1.031-1.132.083 0 .308-.157.5-.349s.467-.35.61-.35.035.21-.241.467c-1.883 1.754-.554 5.361 1.975 5.361 4.14 0 4.073-6.002-.069-6.091l-1.376-.029 1.515-.209c1.61-.221 3.397-.082 3.622.281.074.121.26.217.413.213.373-.01-.462-.497-1.471-.859-1.1-.394-2.222-.341-3.568.171m5.443.87c-.006.16.094.291.222.291s.547.436.932.968.701.86.701.729c0-.353-1.844-2.329-1.855-1.988m-3.882.747c1.542.587 1.565 2.878.036 3.603-2.288 1.086-3.847-2.279-1.642-3.544.578-.332.86-.342 1.606-.059m-32.258 1.642c.273.385.55.7.614.7s-.107-.315-.381-.7-.551-.699-.615-.699.108.315.382.699m26.844.593c-.305.67-.37 3.281-.086 3.457.101.062.143-.546.091-1.354-.055-.869.02-1.678.184-1.985.152-.285.233-.562.179-.615s-.219.17-.368.497m11.687 1.971c0 .705.044.994.097.641a5.19 5.19 0 0 0 0-1.282c-.053-.352-.097-.064-.097.641m24.639.324c0 .049.309.135.687.19s.634.015.569-.09c-.116-.187-1.256-.278-1.256-.1m1.865 1.308c.273.385.55.699.614.699s-.108-.314-.381-.699-.551-.699-.615-.699.108.314.382.699m-37.572 1.312c.25.459 1.907 2.13 1.907 1.922 0-.066-.482-.624-1.072-1.24s-.966-.922-.835-.682m9.832.378c-.343.469-.4.632-.148.427.382-.31.96-1.185.783-1.185-.044 0-.33.341-.635.758m29.393.641c.675 1.047.678 1.049.676.796 0-.117-.271-.528-.602-.913l-.601-.699.527.816m-36.666 1.298c.287.202.704.319.926.26.306-.08.28-.112-.107-.132-.281-.015-.576-.132-.655-.26s-.266-.234-.415-.234-.036.165.251.366m5.059-.132c-.079.128-.374.245-.655.26-.387.02-.413.052-.107.132.222.059.639-.058.926-.26s.401-.366.251-.366-.336.105-.415.234m35.315 5.621c0 .39-.105.466-.5.363-.347-.091-.425-.057-.257.112.365.365 1.223.001 1.223-.518 0-.248-.105-.45-.233-.45s-.233.222-.233.493m187.275 36.803l.078 2.039v-4.079c-.043-1.122-.078-.204-.078 2.04" fill="#7092c8"/><path d="M43.473 105.059c.385.382.741.662.791.621.15-.122-.483-.791-1.005-1.064-.339-.176-.274-.043.214.443m-.807 1.776c-.005.105.139.339.32.52s.376.462.434.625.168.239.244.169-.116-.436-.426-.815-.568-.604-.572-.499m4.136 3.405c.474.76.899 1.344.946 1.297.12-.12-1.443-2.665-1.642-2.673-.091-.003.222.616.696 1.376m-1.347 1.396c0 .117.078.248.174.291s.576.691 1.066 1.44.959 1.294 1.042 1.211.041-.224-.095-.313-.629-.766-1.097-1.503c-.825-1.298-1.09-1.572-1.09-1.126m37.529.34c0 .049.157.465.349.925 1.186 2.838-.677 5.805-3.629 5.783-2.036-.016-3.514-1.35-3.849-3.474-.205-1.292-.364-1.248-.839.235-.361 1.124-.387 2.623-.052 2.95.077.075.106-.073.065-.33-.148-.911.281-1.142.734-.396 2.301 3.783 9.228 2.347 9.334-1.935.01-.384.099-.909.199-1.165.181-.462-.105-1.249-.564-1.553-.128-.085-.485-.374-.793-.641-.507-.441-.955-.628-.955-.399m-33.833 1.706c.298.566.732.915.732.587 0-.116-.225-.411-.5-.655-.496-.441-.498-.44-.232.068m.732 1.346c0 .208.137.29.349.208.191-.073.29-.227.219-.342-.203-.329-.568-.243-.568.134m35.673-.195c-.004.146.148.566.34.933s.345.51.341.318c-.008-.418-.669-1.632-.681-1.251m-37.763.175c-.015.395 1.185 1.309 1.695 1.291.43-.016.402-.059-.179-.27-.38-.138-.875-.47-1.1-.739s-.411-.395-.416-.282m66.496 5.379c.667 1.085 1.286 1.977 1.376 1.982s-.382-.879-1.049-1.964-1.286-1.976-1.376-1.981.382.879 1.049 1.963m-3.333-1.547c0 .106.279.447.619.758l.62.565-.547-.757c-.569-.788-.692-.889-.692-.566m3.041 4.37c.403.586.786 1.012.851.948s-.102-.353-.37-.641-.547-.714-.622-.947-.237-.425-.363-.425.101.479.504 1.065m2.165.2c.147.311.304.528.349.483.144-.144-.218-1.049-.421-1.049-.107 0-.075.254.072.566m93.931 38.828c0 .705.044.993.097.641s.054-.93 0-1.282-.097-.064-.097.641m.01 4.545c.001 1.026.042 1.416.091.868a11.6 11.6 0 0 0-.001-1.865c-.05-.477-.091-.028-.09.997m61.403 2.846c.29.055.71.053.933-.005s-.015-.104-.528-.101-.695.05-.405.106m31.466-.001c.288.056.761.056 1.049 0s.052-.101-.524-.101-.813.046-.525.101m28.329.007c.613.049 1.557.048 2.098-.001s.039-.088-1.115-.087-1.596.04-.983.088m23.077 0c.613.049 1.557.048 2.098-.001s.039-.088-1.115-.087-1.596.04-.983.088" fill="#226ab4"/><path d="M85.255 114.685c-.092.321-.169.845-.171 1.166-.029 4.147-7.063 5.53-9.313 1.831-.509-.838-.947-.451-.698.616l.163.7.028-.68.027-.68.758.842c2.741 3.046 7.996 2.034 9.256-1.783.153-.465.389-.846.523-.846.167 0 .168-.092.004-.292-.132-.16-.278-.553-.325-.874l-.085-.582-.167.582m.426 3.63c-.086.342-.111.666-.056.721s.17-.18.256-.521.111-.666.056-.721-.17.179-.256.521m-1.012 2.098c-.288.439-.478.799-.421.799.162 0 1.127-1.415 1.031-1.512-.047-.047-.322.273-.61.713" fill="#3464ac"/></svg>