<?xml version="1.0" encoding="utf-8"?>
<!-- Generator: Adobe Illustrator 25.3.1, SVG Export Plug-In . SVG Version: 6.00 Build 0)  -->
<svg version="1.1" id="a5689fc5-8d5e-4b19-817c-171f8cabf65a"
	 xmlns="http://www.w3.org/2000/svg" xmlns:xlink="http://www.w3.org/1999/xlink" x="0px" y="0px" viewBox="0 0 258 78"
	 style="enable-background:new 0 0 258 78;" xml:space="preserve">
<style type="text/css">
	.st0{fill:none;}
	.st1{fill:#FF5F00;}
	.st2{fill:#EB001B;}
	.st3{fill:#F79E1B;}
</style>
<g>
	<rect x="-21.1" y="-3.8" class="st0" width="300" height="85.7"/>
	<rect x="25.6" y="22.2" class="st1" width="18.8" height="33.7"/>
	<path class="st2" d="M26.8,39c0-6.6,3-12.7,8.1-16.8c-9.3-7.4-22.7-5.7-30.1,3.6c-7.3,9.2-5.6,22.7,3.7,30c7.8,6.2,18.7,6.2,26.5,0
		C29.9,51.7,26.8,45.6,26.8,39z"/>
	<path class="st3" d="M69.6,39c0,11.9-9.6,21.4-21.4,21.4c-4.8,0-9.4-1.6-13.3-4.6c9.3-7.4,10.9-20.8,3.6-30.1
		c-1.1-1.3-2.3-2.5-3.6-3.6c9.3-7.3,22.8-5.6,30.2,3.6C68.1,29.6,69.6,34.2,69.6,39z"/>
	<path class="st3" d="M67.6,52.3v-0.7H68v-0.1h-0.7v0.1h0.3V52.3L67.6,52.3z M69,52.3v-0.9h-0.2L68.5,52l-0.2-0.5h-0.2v0.9h0.1v-0.7
		l0.2,0.5h0.1l0.2-0.5v0.7H69z"/>
	<polygon points="91.5,60.5 90.7,60.5 90.7,53.3 90.7,38.9 90.7,24.4 90.7,17.1 91.5,17.1 91.5,31.6 91.5,46 	"/>
	<path d="M113.5,52.3h-2.2V26.7h2.2V52.3z M129.7,26.7c2,0,3.8,0.2,5.7,0.9c1.6,0.5,3.1,1.4,4.4,2.5c1.2,1.1,2.2,2.5,2.7,4.1
		c1.3,3.4,1.3,7.1,0,10.7c-0.7,1.5-1.5,2.9-2.7,4.1c-1.2,1.1-2.7,2-4.4,2.5c-1.9,0.7-3.8,0.9-5.7,0.9h-9.3V26.7H129.7z M122.6,28.9
		v21.3h7.1c1.6,0,3.3-0.2,4.9-0.8c1.3-0.4,2.5-1.2,3.6-2.2c1-1,1.8-2.1,2.2-3.4c1-2.9,1-5.9,0-8.8c-0.4-1.3-1.2-2.4-2.2-3.4
		c-1-1-2.3-1.6-3.6-2.2c-1.5-0.5-3.3-0.8-4.9-0.8L122.6,28.9z M169.4,26.5c1.1,0,2.1,0.1,3.2,0.3c1,0.2,2,0.5,2.9,1.1
		c0.9,0.4,1.6,1,2.4,1.6c0.8,0.7,1.3,1.4,1.9,2.2l-1.9,1.2c-0.4-0.7-1-1.3-1.5-1.8c-0.5-0.5-1.3-1-2-1.3c-0.8-0.3-1.5-0.7-2.3-0.9
		c-0.9-0.2-1.8-0.3-2.6-0.3c-1.4,0-2.9,0.2-4.3,0.8c-1.3,0.5-2.4,1.2-3.4,2.2c-1,1-1.8,2.2-2.3,3.4c-1.1,2.9-1.1,6,0,8.9
		c0.5,1.3,1.3,2.4,2.3,3.4c1,1,2.1,1.8,3.4,2.2c1.3,0.5,2.7,0.8,4.3,0.8c0.9,0,1.8-0.1,2.5-0.3c0.8-0.2,1.5-0.4,2.3-0.9
		c0.8-0.3,1.4-0.9,2-1.3c0.5-0.5,1.1-1.1,1.5-1.9l1.9,1.3c-0.5,0.8-1.2,1.5-1.9,2.2c-0.8,0.7-1.5,1.2-2.4,1.6
		c-0.9,0.4-1.9,0.8-2.9,1c-2.7,0.7-5.7,0.4-8.3-0.7c-1.5-0.7-3-1.5-4.2-2.7c-1.2-1.2-2.1-2.5-2.7-4.2c-1.3-3.4-1.3-7.1,0-10.5
		c0.7-1.5,1.5-3,2.7-4.2c1.2-1.2,2.6-2.1,4.2-2.7C165.9,26.7,167.6,26.4,169.4,26.5L169.4,26.5z M186.5,38.1c0.3-0.5,0.8-1,1.2-1.4
		c0.4-0.4,1-0.8,1.5-1c0.5-0.2,1.1-0.4,1.6-0.5c0.5-0.1,1.2-0.2,1.8-0.2c1,0,2,0.1,3,0.4c0.9,0.3,1.6,0.8,2.3,1.4
		c0.7,0.7,1.1,1.3,1.4,2.2s0.5,1.9,0.5,2.9v10.5h-2.1v-9.9c0-0.8-0.1-1.5-0.3-2.3c-0.2-0.7-0.5-1.2-1.1-1.8
		c-0.4-0.4-1.1-0.9-1.8-1.1c-0.8-0.2-1.5-0.4-2.3-0.3c-0.8,0-1.5,0.1-2.3,0.4c-0.7,0.2-1.3,0.7-1.9,1.2c-0.5,0.5-1,1.1-1.2,1.8
		c-0.3,0.8-0.4,1.5-0.4,2.3v9.8h-2.1V26h2.1V38.1z M212.2,34.8c1.1,0,2.2,0.2,3.2,0.7c1,0.4,1.9,1,2.5,1.8c0.8,0.8,1.3,1.8,1.6,2.7
		c0.4,1.1,0.7,2.3,0.7,3.5c0,0.1,0,0.3,0,0.4c0,0.1,0,0.3,0,0.4h-14.4c0,0.9,0.3,1.9,0.7,2.6c0.3,0.8,0.9,1.4,1.4,2
		c0.5,0.5,1.3,1,2.1,1.2c0.8,0.3,1.6,0.4,2.5,0.4c1.1,0,2.2-0.2,3.2-0.7c1-0.4,1.9-1.1,2.5-1.8l1.1,1.4c-0.5,0.5-1.1,1-1.6,1.3
		c-0.5,0.3-1.1,0.7-1.8,0.9c-0.5,0.2-1.2,0.3-1.8,0.4c-0.7,0.1-1.2,0.1-1.9,0.1c-1.2,0-2.4-0.2-3.5-0.7c-1-0.4-2-1-2.7-1.9
		c-0.8-0.8-1.4-1.8-1.8-2.7c-0.4-1.1-0.7-2.4-0.7-3.6c0-1.2,0.2-2.4,0.7-3.5c0.4-1.1,1-2,1.8-2.9c0.8-0.8,1.6-1.4,2.7-1.9
		C209.9,35,211.1,34.8,212.2,34.8L212.2,34.8z M212.2,36.7c-0.8,0-1.6,0.1-2.4,0.4c-0.7,0.3-1.3,0.7-1.9,1.2c-0.5,0.5-1,1.2-1.3,1.9
		c-0.3,0.8-0.5,1.5-0.7,2.4h12.3c-0.1-0.9-0.2-1.6-0.5-2.4c-0.3-0.7-0.8-1.3-1.3-1.9C215.2,37.2,213.7,36.7,212.2,36.7L212.2,36.7z
		 M232.2,34.8c1.2,0,2.4,0.2,3.5,0.7c1.1,0.4,2,1.1,2.7,2l-1.3,1.4c-0.7-0.7-1.4-1.2-2.3-1.5s-1.9-0.5-2.7-0.5s-1.8,0.2-2.6,0.5
		c-0.8,0.3-1.5,0.9-2.1,1.4c-0.7,0.7-1.1,1.4-1.4,2.2c-0.7,1.8-0.7,3.7,0,5.5c0.7,1.6,1.9,3,3.5,3.6c0.9,0.3,1.8,0.5,2.6,0.5
		c1,0,2-0.2,2.9-0.5c0.9-0.3,1.6-0.9,2.3-1.5l1.3,1.4c-0.8,0.9-1.8,1.5-2.7,2c-2.3,0.9-4.8,0.9-7.1,0c-2.1-0.9-3.7-2.5-4.6-4.6
		c-0.9-2.3-0.9-4.7,0-7c0.8-2.1,2.5-3.8,4.6-4.7C229.8,35,231,34.8,232.2,34.8L232.2,34.8z M244.8,42.3h2.7l7.3-7.3h2.6l-8.1,8.1
		l8.3,9.1h-2.6l-7.4-8h-2.7v8h-2.1V26h2.1v16.3H244.8z"/>
</g>
</svg>
